<?xml version="1.0" encoding="UTF-8"?><svg id="Layer_1" xmlns="http://www.w3.org/2000/svg" viewBox="0 0 345.99 373.74"><g><path d="M281.93,307.62c-3.42,5.11-8.62,4.64-13.72,4.55-6.55-.11-13.1-.29-19.65-.36-1.8-.02-3.62,.12-5.41,.37-6.11,.85-12.18,2.15-18.32,2.62-14.68,1.12-29.35,1.79-43.91,4.49-6.33,1.17-13.07,.39-19.61,.17-22.95-.77-45.27,3.54-67.57,8.08-10.85,2.21-21.68,4.55-32.54,6.66-3.02,.59-6.15,.85-9.22,.82-3.6-.04-6.62-2.89-6.03-6.3,1.73-10.03-.61-19.97-.07-29.95,1.07-19.8,1.68-39.63,3.12-59.41,1.04-14.31,2.83-28.58,4.8-42.79,1.9-13.67,4.38-27.27,6.82-40.86,.32-1.76,1.5-3.89,2.95-4.8,2.38-1.51,3.18-3.44,4.09-5.94,3.55-9.74,8.14-18.8,15.96-26.16,4.44-4.17,7.5-9.79,11.27-14.69,7.4-9.63,15.03-19.09,22.23-28.86,5.06-6.87,9.52-14.16,14.31-21.23,4.38-6.46,8.64-13.01,14.4-18.42,3.76-3.53,8.47-3.66,12.56-.38,9.12,7.33,16.69,16.14,24.41,24.83,3.38,3.8,7.18,7.23,10.72,10.89,4.28,4.42,8.5,8.9,12.74,13.36,.62,.66,1.37,1.32,1.7,2.13,4.02,9.75,12.31,16.49,17.76,25.27,2.83,4.56,6.85,8.42,10.56,12.39,5.33,5.7,10.86,11.22,16.31,16.81,2.38,2.44,4.37,5.45,8.55,4.85,1.92-.28,3.03,1.01,3.5,2.76,1.05,3.84,2.21,7.67,3.03,11.56,2.14,10.12,4.46,20.23,6.07,30.44,1.61,10.22,2.47,20.56,3.64,30.85,.47,4.15,.93,8.3,1.33,12.45,.58,6.15,1.5,12.3,1.52,18.46,.03,7.37,1.88,14.38,3.09,21.53,1.4,8.29,1.7,16.61,.72,24.98-.29,2.46-1.68,8.22-2.09,8.83Zm-25.23-146.33c-6.68-1.31-12.92,.36-19.1,1.46-14.2,2.53-28.47,3.9-42.89,3.81-8.88-.05-17.73-1.08-26.67,.07-9,1.16-18.11,1.59-27.19,2-15.26,.69-30.52-.26-45.43-3.28-6.63-1.34-13.33-1.34-19.87-2.81-2.1-.47-3.48,.18-4.08,2.43-1.72,6.51-4.05,12.9-5.2,19.5-2.46,14.14-4.44,28.37-6.38,42.59-1.03,7.57-1.88,15.19-2.26,22.81-.88,17.62-1.62,35.26-2.01,52.89-.15,6.78,.82,13.58,1.29,20.53,1.78-.08,3.04-.15,4.29-.19,8.23-.24,16.18-2.19,24.21-3.74,9.65-1.86,19.42-3.02,29.1-4.73,14.91-2.64,29.88-4.5,45.05-4.1,9.86,.26,19.65,.03,29.36-1.96,3.2-.66,6.49-.84,9.75-1.21,13.19-1.52,26.42-2.78,39.55-4.65,5.59-.8,11.03-1.79,16.76-1.3,4.49,.39,9.07-.36,13.61-.47,2.19-.06,3.37-1.13,3.86-3.12,.35-1.41,.96-2.86,.87-4.25-.51-8.33-1.12-16.65-1.85-24.96-.27-3.07-1.19-6.08-1.44-9.15-.93-11.42-1.84-22.85-2.49-34.3-1.23-21.52-6.04-42.42-10.83-63.87Zm-183.36-11.57c6.15,1.28,10.9,2.36,15.7,3.23,4.45,.81,8.97,1.27,13.42,2.08,4.08,.74,8.66,1.24,13.4,2.19,8.23,.84,5.19,.54,8.23,.84,7.72,0,15.18,.2,22.63-.04,15.27-.49,30.48-2.42,45.81-1.32,5.07,.36,10.22,.45,15.28-.03,10.85-1.02,21.67-2.42,32.48-3.83,2.01-.26,3.92-1.32,5.95-2.03-2.17-5.69-5.38-9.94-9.48-13.23-7.94-6.36-13.5-14.69-19.65-22.54-1.79-2.28-3.37-4.71-5.08-7.06-2.67-3.66-5.79-7.06-7.93-11-2.49-4.59-5.8-8.26-9.52-11.8-6.18-5.88-11.95-12.21-18.12-18.11-6.82-6.52-13.68-13.05-20.95-19.05-4.32-3.57-6.58-2.75-9.81,1.85-13.7,19.48-26.86,39.34-41.84,57.9-7.08,8.77-14.07,17.62-20.82,26.64-3.34,4.47-6.02,9.44-9.71,15.3Z"/><path d="M139.88,187.82c7.99,0,15.99-.06,23.98,.02,7.67,.07,15.23-3,22.98-.82,9.73-2.3,19.49-.64,29.25-.32,1.26,.04,2.55,.02,3.77-.24,3.75-.77,6.35,.74,6.89,4.37,.21,1.4,.26,3.03-.25,4.3-2.97,7.48-2.48,15.35-2.73,23.1-.32,10-.21,20.02-.24,30.03,0,1.63-.02,3.34,.43,4.88,1.57,5.48-.13,10.44-2.37,15.24-.6,1.29-2.17,2.54-3.55,2.97-2.75,.85-5.67,1.31-8.55,1.6-7.22,.74-14.47,1.28-21.7,1.95-1.06,.1-2.32,.14-3.11,.73-2.01,1.5-3.9,1.34-6.14,.6-1.66-.55-3.57-.56-5.36-.49-11.85,.52-23.66-.1-35.4-1.69-3.94-.53-7.85-1.59-11.66-2.76-7.44-2.29-10.64-7.15-11.1-16.83-.27-5.8-.62-11.64-.19-17.41,.56-7.38,1.89-14.69,2.85-22.04,.53-4.06,1.45-7.89-1.79-11.77-2.89-3.45,.05-9.97,4.91-12.11,6.05-2.67,12.4-4.17,19.08-3.31Zm30.37,9.32c-13.54,.05-27.09-1.26-40.41,2.15-.16,2.5-.16,4.67-.49,6.79-.36,2.32-1.21,4.57-1.55,6.89-.67,4.49-1.29,8.99-1.64,13.51-.29,3.69,.51,4.78,4.05,5.12,9.74,.91,19.5,1.83,29.27,2.2,4.25,.16,8.55-1,13.2-1.61,0-7.22,.14-14.06-.05-20.89-.11-3.8-.72-7.58-1.21-11.36-.11-.84-.66-1.63-1.16-2.8Zm5,69.64c.46-8.73-.5-16.56-1.86-25.02-16.04,.57-31.82,1.12-48.24,1.7,0,2.14,.23,4.3-.04,6.4-.99,7.78,3.69,12.02,10.01,13.32,8.32,1.72,16.83,2.66,25.29,3.52,4.66,.47,9.41,.08,14.84,.08Zm39.29-69.32c-10.84-2.29-20.82-2.53-31.3-.15,1.89,11.66-2.91,22.81,.51,34.24,8.78,.11,17.31-.08,25.68-1.95,3.98-.88,4.7-2.15,4.76-6.1,.11-6.56,.24-13.11,.34-19.67,.03-1.96,0-3.93,0-6.38Zm-27.95,68.23c6.21-.57,11.77-1.07,17.33-1.61,1.81-.18,3.6-.49,5.39-.76,2.27-.34,3.74-1.61,3.78-3.95,.09-5.96,.03-11.92,.03-18.27-8.92-1.14-17.41-1.01-25.89-.31-.93,.08-2.2,1.33-2.52,2.3-.5,1.5-.49,3.24-.4,4.85,.24,3.97,.58,7.94,1.02,11.9,.2,1.77,.74,3.5,1.25,5.85Z"/></g><path d="M246.87,194.29c-1.09,.06-2,.03-2.88,.19-1.55,.27-2.52,1.05-3.08,2.72-1.16,3.44-2.53,6.82-4.03,10.12-1.28,2.82-5.14,3.34-7.48,.36-.66-.85-.53-1.74-.05-2.57,.71-1.2,1.76-2.18,3.2-2.07,1.74,.13,2.65-.81,3.27-2.12,1.33-2.79,2.58-5.61,3.78-8.45,.43-1.02,.97-1.6,2.15-1.63,2.31-.06,4.61-.32,6.92-.35,2.19-.02,4.01,2.43,2.82,4.39-1,1.66-1.7,3.53-2.42,5.35-.41,1.03-.68,2.14-.87,3.23-.43,2.41-1.85,4.5-2.06,7.01-.13,1.66-1.44,2.24-3.21,1.82-.67-.16-1.54-.11-1.95-.53-.59-.59-1.22-1.57-1.13-2.3,.12-1.07,.84-2.19,2.12-2.33,1.27-.14,1.77-.74,2.09-1.93,.85-3.1,1.88-6.16,2.78-9.25,.14-.49,.02-1.06,.02-1.68Z"/><path d="M198.33,222.89c-1.11-.18-2.3-.95-3.12-2.18-.55-.82,.02-2.18,1.18-2.79,.93-.49,1.93-.89,2.95-1.15,1.1-.28,1.72-.93,2.08-1.93,.93-2.57,1.89-5.13,2.78-7.71,.34-.99,.73-1.84,1.83-2.16,1.27-.38,2.31,.27,3.27,.84,.85,.51,.82,1.5,.53,2.37-.12,.36-.44,.82-.76,.91-2.65,.74-2.98,3.2-3.9,5.2-.49,1.06-.86,2.18-1.29,3.27-.2,.52-.48,1.02-.61,1.56-.59,2.52-2.07,3.76-4.95,3.78Z"/><path d="M253.53,219.31c1.45-1.96,2.4-3.87,2.92-6,.17-.69,.61-1.31,.88-1.98,.17-.44,.35-.93,.35-1.39,.01-1.78,1.25-2.56,2.88-1.76,.19,.1,.36,.26,.55,.4,.13,2.09-.64,3.95-1.43,5.79-.79,1.82-1.66,3.6-2.53,5.38-.19,.39-.52,.95-.84,.99-1.21,.13-1.79,1.28-2.75,1.62-2.31,.81-4.68,.73-6.91-.45-.17-.09-.27-.33-.41-.52,.92-1.41,2.08-2.49,3.49-3.31,.48-.28,.88-.32,1.39,0,.75,.46,1.56,.81,2.42,1.24Z"/><path d="M296.22,199.56c.9-3.7,1.75-7.15,2.66-10.86-2.16-.32-4.06-.38-5.93,.11-1.05,.27-1.92,.89-2.28,2.08-.92,3.08-1.9,6.15-2.85,9.23-.36,1.16-.6,2.35-1.04,3.48-.77,2-4.6,3.05-6.31,1.79-1.11-.82-1.4-2.27-.43-3.41,.72-.85,1.69-1.54,2.67-2.1,.8-.46,1.35-.96,1.69-1.83,1.31-3.41,2.76-6.77,3.98-10.21,.65-1.82,1.6-2.6,3.6-2.61,2.57,0,5.14-.34,7.7-.68,2.4-.32,3.73,1.03,3.12,3.41-.71,2.77-1.52,5.52-2.16,8.31-.63,2.77-1.09,5.58-1.62,8.37-.26,1.34-1.71,2.39-3.07,2.07-1.04-.25-2.08-.61-3.02-1.12-1.5-.8-1.78-2.6-.82-4.03,.95-1.42,2.19-2.25,4.1-1.99Z"/></svg>