<?xml version="1.0" encoding="UTF-8"?><svg id="Layer_1" xmlns="http://www.w3.org/2000/svg" viewBox="0 0 413 145"><path d="M91.43,79.97c-3.98,4.43-13.61,2.93-17.21,6.69-2.66,2.79-6.94,18.83-9.04,23.57-2.89,6.53-5.19,11.13-13.42,9.72l-1.8-3.98c10.02-5.88,10.12-18.09,15-27.5-18.34-2.83-26.49,12.98-33.98,26.57-16.5-.17,3.6-17.1,5.46-21.96.74-1.94-1.07-3.8-.11-5.77,1.15-2.35,5.11-2.15,7.14-3.44,5.93-3.75,19.81-20.61,24.31-26.95s7.14-12.93,11.17-19.19l5.69.8c2.04,2.28-4.38,32.45-6.85,37.12,4.31.04,7.48-3.71,12.03-2.15,2.52.87,3.45,4.43,1.62,6.47ZM68.17,77.69c2.18-2.06,4.42-12.6,6.11-16.01l-17.46,18.06c2.2,1.49,9.79-.57,11.35-2.05Z"/><path d="M329.53,40.79c-.26.26.07,3.08-.67,4.53-.64,1.25-9.08,10.31-7.54,11.7,3.72.63,15.23-5.44,16.19.74,1.08,6.99-19.65,8.29-24.42,6.74l-4.59,9.97c6.43,2.5,10.99-2.03,17.49-1.15v-5.83s7.98,1.33,7.98,1.33c4.52,15.03-35.39,20.34-35.43,6.24-.03-9.38,25.02-28.22,24.12-40,10.97-5.27,23.2-1.04,34.16-1.32,5.35-.14,28.31-6.53,30.4-4.82s2.53,4.61.55,6.57c-1.47,1.46-28.42,6.17-32.19,6.26-5.2.13-12.77-1.72-18.51-1.56-1.27.04-7.25.32-7.52.58Z"/><path d="M92.21,87.73c.92-1.4,4.39-3.45,4.76-6.11-2.16-4.3,8.15-21.46,11.13-22.91.82-.4,1.48-.52,2.32-.07l3.29,2.57-1.55,8.64c7.43-3.76,14.7-14.82,23.76-10.38,1.29,5.21-4.06,7.49-6.83,11l-17.52,11.58c.96,2.47,12.18,7.3,15.12,8.19,7.84,2.36,22.4.36,11,13.34l-33.73-15.15c-4-.03-4.6,12-11.43,10.42-4.68-3.32-2.84-7.25-.32-11.11Z"/><path d="M219.45,60.03c-5.51,7.74-11.8,15.08-17.53,22.66-3,3.97-1.89,9.17-9.93,9.28-2.8-6.24-.18-8.69,3.47-13.4-5.8-.3-8.47,7.86-10.42,12.9l-7.05-.68c-1.37-1.9,6.15-10.27,6.72-12.49s-.24-6.02.44-7.13c.16-.25,3.4-1.04,4.99-2.58,4.82-4.66,10.22-19.61,13.98-22.12,1.44-.96,2.86-1.56,4.6-.99,6.81,2.22-7.34,18.08-8.58,21.48-.79,2.17,1.33,2.1,2.72,1.55,2.16-.86,12.88-15.45,15.23-18.56,1.56-2.07,5.34-12.1,10.04-8.71,4.98,3.59-6.21,15.33-8.68,18.8Z"/><path d="M261.07,81.14c-5.3-6.54,3.08-36.23,13.56-25.7-1.06,6.61-8.82,9.46-6.93,17.3.95,6.86,12.1-13.06,12.82-13.97,3.72-4.71,8.84-9.43,12.79-14,3.23-3.75,10.19-15.5,14.58-15.52,3.79-.02,4.74,1.3,3.87,4.79-1.11,4.45-16.73,18.66-20.72,23.59-4.48,5.55-20.18,35.58-29.97,23.51Z"/><path d="M162.13,74.93c-2.81,3.27-12.46,15.82-6.27,18.8s7.82-7,12.86-3.57c4.14,2.82-4.22,11.19-7.87,12.03-16.69,3.85-17.42-14.96-10.17-25.3,3.46-4.92,18.25-19.95,23.22-23.37,3.21-2.22,7.2-3.71,10.99-2.24,1.5,2.23-1.86,8.99-3.93,10.46s-4.77,1.12-6.89,2.43c-3.9,2.42-8.95,7.27-11.94,10.76Z"/><path d="M238.87,50.33c2-1.93,10.09-2.86,10.21,1.4.03,2.56-20.38,24.41-23.79,29.86-4.14,6.61-3.74,14.67-12.36,15.64l-3.32-3.78c-1.02-3.68,8.8-15.86,11.53-19.5,4.54-6.07,10.22-11.81,14.95-17.66,1.29-1.59,1.65-4.86,2.78-5.95Z"/></svg>