<?xml version="1.0" encoding="UTF-8"?><svg id="Layer_1" xmlns="http://www.w3.org/2000/svg" viewBox="0 0 461 121"><path d="M323.77,67.33c5.83,3.4,12.88,3.59,19.11.96,3.8-1.61,5.71-7.29,11.57-5.07,1.56,7.89-9.2,12.43-15.44,14.07-10.52,2.75-24.99.02-23.92-13.48l-27.27,4.49c2.77,4.76,6.05,9.02-.59,12.26-5.22-.13-6.54-12.58-8.28-12.92-4.02,2.67-9.54.82-13.3,2.13-2.71.94-4.27,5.98-9.17,3.87-1.49-.74-2.03-1.93-2.02-3.55.06-6.15,22.51-18.52,27.66-23.08l6.06,2.96-2.08,6.45,2.01,3.38c8.53,3.58,19.42-4.38,27.29-1.48,1.4.52.15,3.32,1.32,2.89,2.4-5.73,27.73-21.95,29.2-11.72.98,6.81-23.02,6.9-22.15,17.84Z"/><path d="M276.58,40.9l-.47-4.12c-5.97-.12-13.29-.65-19.14-.16-2.08.18-3.73,1.8-5.92,2.01-15.19,1.46-29.99,2.35-45.06,4.38l1.39,8.36c-9.02,4.59-10.55,16.17-19.25,21-9.61,5.34-15.15-2.24-21.99-.67l-11.14,9.47c-8.57-7.29,6.32-15.77,10.89-21.82,3-1.02,11.51,14.58,22.48,4.23,2.27-2.14,9.22-13.43,10.28-16.49,1.51-4.37-4.43.9-7.31-2.61-1.87-2.28-1.51-6.33,1.7-7.23,21.18-1.59,42.3-5.73,63.46-7.25,5.64-.4,25.65-1.92,29.22.17,5.88,3.43-2.69,14.74-9.14,10.74Z"/><path d="M93.14,54.9c-10.86-4.63-16.59-3.55-26.72,2.05-4.35,2.41-28.34,20.42-27.92,24.12,10.91,6.58,26.72,2.87,38.26-1.13,6.98-2.42,15.68-11.45,21.4-3.14-2.01,6.27-9.79,4.24-13.21,5.38-17.82,5.93-26.04,13.88-46.26,7.61-8.07-2.5-6.98-10.21-2.32-15.78,6.21-7.44,34.88-25.14,44.25-27.32,2.98-.69,12.48-1.16,14.01,1.43l-1.5,6.77Z"/><path d="M425.71,34.1c11.18,1.13,9.11,8.64,1.49,9.4-13.6,1.34-36.87-4.21-51.99-4.68-4.67-.14-19.11,4.07-19.63-2.56-.31-3.96,8.05-4.82,10.86-4.91,14.06-.45,28.32,2.9,42.17,3.66,4.78.26,12.26-1.39,17.11-.9Z"/><path d="M142.83,60.35c2.03,1.94,6.97,1.43,5.65,6.84-1.83,7.49-22.49,14.78-29.58,14.73-30.01-.2,11.73-32.24,21.19-26.23,1.57,1,1.61,3.58,2.74,4.66ZM139.13,65.99l-8.56-4.61-12.74,11.63c1.87,3.27,1.99,1.39,3.49,1.23,2.08-.23,20.98-4.02,17.81-8.25Z"/><path d="M383.53,49.55c2.28-1.07,8.14.17,7.49,3.57-.59,3.04-6.77,11.61-8.54,15.6-1.31,2.96-1.03,6.77-2.46,9.17-2.14,3.59-6.92,2.86-8.25-.76-1.08-2.93,8.58-26.1,11.76-27.58Z"/><path d="M231.75,51.14c1.61-1.93,7.69-2.17,7.8,2.45.1,4.05-7.64,28.58-13.7,16.59l5.9-19.04Z"/></svg>