<?xml version="1.0" encoding="UTF-8"?><svg id="Layer_1" xmlns="http://www.w3.org/2000/svg" viewBox="0 0 500 159"><path d="M114.41,101.86c-18.93,7.53-45.06,11.36-65.29,16.76-2.2.59-8.87,5.27-9.27.43-.16-1.89,2.47-5.01,3.92-6.17,4.32-3.44,8.99-4.78,12.87-.45l28.02-7.81c-.39-8.07,10.95-38.39,18.74-40.19,2.78-.64,1.92,1.72,1.26,3.38-4.35,10.9-12.77,20.94-12.01,33.85,2.45,4.01,49.06-20.32,52.48-27.84.82-1.79.58-3.04-.21-4.76-3.93-8.47-36.39-12.86-45.67-13.63-6.04-.5-31.95,2.29-33.47,1.56-1.05-.5-2.23-2.32-1.67-3.63.5-1.36,7.4-3.74,9.09-4.03,14.91-2.51,48.82,2.14,63.37,6.52,11.8,3.55,19.7,13.15,10.66,24.28-4.72,5.81-25.95,18.97-32.83,21.71Z"/><path d="M286.12,73.75c.75,1.01,19.48.57,22.54.36,7.83-.53,29.2-8.51,21.62,5.38l-48.27,2.66-11.51,15.57c-7.23-1.9,1.72-15.04.54-16.59-6.06-4.1-15.25,7.11-19.57,5.25-2.77-2.14-.54-5.42-1-7.48-.32-1.42-4.31-2.98-1.41-8.2,2.36.01,4.68,1.7,6.89,1.74,4.77.09,23.64-14.32,30.42-17.33,14.55-6.46-2.19,16.02-.25,18.63Z"/><path d="M410.07,72.44c4.4-2.48,14.4,1.01,9.57,5.75-1.68,1.65-17.01.28-21.71,1.52-2.71.71-11.47,5.15-12.44,7.66-1.05,4.04,7.46,2.44,9.59,3.64l3.2-5.06c5.21-.61,4.55,5.82,8.22,8.89-5.77,8.23-32.64,4.07-31.07-6.26,1.05-6.92,6.13-6.6,9.48-9.43,1.06-.89,1.45-3.25,3.16-4.7,3.13-2.65,16.39-6.62,18.41-9.51l-.46-7.12c4.2-.43,7.38-3.84,11.71-3.73,10.46.29,34.19,2.88,43.77,5.53,7.28,2.02,3.68,7.99-.11,8.07-2.1.05-10.44-2.98-14.65-3.42-8.28-.88-17.23-.39-25.7-2.33-2.57,1.1-12.58,7.33-10.96,10.5Z"/><path d="M208.01,85.28c-1.44.56-15.29,18.88-16.44,7.35-.22-2.19,13.93-20.43,16.34-21.57,1.87-.88,3.18-1.47,4.96.1,3.35,6.17,3.67,16.69,13.52,14.15l22.04-32.82c2.81-2.79,8.28,1.24,5.92,4.67-8.82,7.03-20.77,35.06-31.11,36.68s-10.01-10.57-15.22-8.55Z"/><path d="M400.84,41.91l-.16,6.81c-1.8,1.43-3.84,1.61-6.03,1.72-18.31.9-60.88.48-76.95-5.07-1.49-.51-4.14-.74-4.41-2.79-1.07-8.16,10.67-1.58,13.39-1.23,18.13,2.36,52.09,2.38,69.89.14,1.47-.19,2.91-.34,4.26.43Z"/><path d="M165.96,74.41l11.28,2.28.97,1.8c-3.17,7.54,3.1,10.72-4.73,17.92-6.14,5.64-11.99,3.25-18.91.43-6.76-13.26,5.21-14.15,11.4-22.43ZM169.02,84.51c-5.31-.58-11.67,1.59-8.23,7.85l8.27.43-.03-8.28Z"/><path d="M339.5,87.74c-11.12-1.46-1.51-15.19,2.68-20.28,1.84-2.24,13.74-13.57,15.61-12.91l2.67,4.95c-9.26,8.39-16.97,15.94-20.97,28.25Z"/></svg>