<?xml version="1.0" encoding="UTF-8"?><svg id="Layer_1" xmlns="http://www.w3.org/2000/svg" viewBox="0 0 694 130"><path d="M109.55,50.75c-.19,3.87-4.43,3.79-6.83,6.2-1.16,1.17-6.22,7.53-5.22,9.09,7.07,6.14,15.04-.47,23.34.05l2.9,4.59c-6.76,12.6-12,20.38-22.32,29.99-2.28,2.12-4.08,8.38-8.65,4.71-6.25-5.02,10.37-13.77,13.36-17.83,1.11-1.51,6.9-12.35,6.36-12.99l-6.52,2.05c6.05,9.91-9.6,13.33-16.93,13.08-3.53-.12-5.96-2.02-8.97-2.14-7.65-.3-35.2,2.43-38.17-5.44-1.44-3.82.02-5.51,2.22-8.15,5.08-6.1,52.79-25.98,60.68-25.03,1.68.2,3.06,1.63,4.75,1.82ZM97.89,56.39c-.99-1.1-22.9,7.36-26,8.72-3.68,1.62-23.84,10.9-23.45,14.22,5.62,6.36,16.14,3.3,23.82,3.31,9.11,0,16.2,1.88,25.68-1.41l.42-4c-7.84-.22-15.9-11.49-4.25-11.68-1.95-5.29,3.05-4.77,3.77-9.16Z"/><path d="M621.56,67.64c-3.95-.35-16.72-1.19-17.08,4.36l2.47,3.01-8.19,5.43c-2.09-.22-9.7-13.79-8.4-16.66s5.49-2.02,6.79-3.28c1.71-1.66,6.28-24.11,14.68-16.81,3.85,3.34-3.83,11.6-4.52,15.48,1.12,1.25,16.18.38,17.76-1.15,3.91-3.77,10.28-29.84,14.79-31.98,3.5-1.66,7.64.5,6.44,4.77-5.73,12.08-12.99,25.66-16.48,38.55-.82,3.03-3.05,12.08-3.23,14.69-.35,5.24,5.06,8.66-1.33,12.22-14.51,8.08-6.28-22.64-3.7-28.64Z"/><path d="M187.72,53.4c-1.79.79-5.69-.69-8.35-.29-3.53.53-7.23,2.52-10.37,2.63-5.65.2-11.53-4.68-14.39-.12l4.11.46-1.97,5.3c5.82-1.46,10.45-4.17,16.83-2.3l-.74,5.29c-6.31-2.48-17.13,7.28-19.59,7.58-2.78.35-3.55-2.71-5.65-2.55-4.22.32-6.18,6.64-8.12,9.76-.85,1.37-6.87,1.37.2,5.3,6.69-2.89,14.09-2.99,20.99-4.98,3.22-.93,7.3-7.06,9.64.38,1.81,5.73-4.01,4.63-6.96,5.75-5.54,2.11-4.09,1.04-9.84,2.02-5.26.9-20.89,6.03-23.87-.15s17.84-27.3,23.51-31.31l-5.98-2.66.44-4.23c.99-1.08,5.7-1.38,7.51-1.5,6.28-.43,26.88-2.09,31.54-1.22,6.03,1.14,3.91,5.57,1.04,6.84Z"/><path d="M251.64,52.32c-3.6.88-5.77-2.86-8.3-3.27-6.04-.97-16.55,2.4-23.23,1.26,6.13,7.24-7.41,15.89-10.09,22.31-1.93,4.62.4,11.58-6.62,10.32-14.46-2.58,16.02-28.76,13.83-31.57-9.2.67-15.66,4.2-24.87.05l.49-4.01c3.34.88,6.05-2.28,8.51-2.66,7.45-1.14,22.49-2.81,30.07-2.85,7.22-.04,25.67-.58,20.22,10.42Z"/><path d="M354.14,45.72c9.06-1.31-.13,9.67-1.3,12.37-2.82,6.54-4.12,15.05-10.85,19.06-10.18,6.06-13.95-3.15-22.51-6.46-5.18-.1-12.94,14.32-18.66,4.94-1.23-4.23,18.74-18.04,20.34-18.31,7.37-1.24,6.34,8.36,11.02,11.88,11.63,8.75,13.73-22.3,21.95-23.49Z"/><path d="M546.21,78.39c-13.81-14.54,25.81-39.11,32.24-20.28l-2.5,3.2c-6.34-4.97-11.86-3.99-18,.82-12.61,9.87-.54,15.75,10.39,11.38,3.28-1.31,7.23-7.86,11.11-6.28,9.46,3.84-10.45,15.73-16.98,16.03-4.35.2-13.23-1.67-16.26-4.86Z"/><path d="M463.64,46.33c-3.83.79-5.97-2.92-8.65-3.63-15.32-4.04-35,1.42-51,0-3.84-.77-3.28-4.02-2.71-7.27,17.02,1.78,39.59-4.93,56.12-.89,5.99,1.46,7.67,5.95,6.24,11.8Z"/><path d="M485.1,50.28c4.74,3.59-1.21,13.22-4.33,16.59-5.88,6.36-19.23,11.9-22.54.59-2.89-9.85,10.69-10.81,12.09-19.83l14.78,2.64ZM468.02,61.04c-.86.83-1.15,2.06-2.09,2.83l2.96,2.21,5.63-5.41c-.39-3.44-5.46-.62-6.5.37Z"/><path d="M503.28,63.11l.39,2.8c11.72.39,22.43-5.69,19.28-18.65,27.84,4.96-12.97,32.76-23.28,26.84-11.51-6.6.19-29.76,9.41-13.84l-5.8,2.85Z"/><path d="M304.75,55.58c2.67-.47,4.34.08,5.68,2.49.36,4.84-15.49,10.94-19.58,14.37s-6.32,8.3-9.45,11.49c-3.41,3.47-6.65-.07-6.61-3.58.04-2.96,8.95-11.01,11.82-13.19,1.98-1.5,17.08-11.4,18.14-11.59Z"/><path d="M433.67,51.53c2.64-.38,5.69,2.51,5.19,5.01-1.69,3.92-7.39,6.85-8.52,10.89-.8,2.86,1.81,11.51-3.99,10.85-9.84-1.12-.72-25.59,7.33-26.75Z"/></svg>