<?xml version="1.0" encoding="UTF-8"?><svg id="Layer_1" xmlns="http://www.w3.org/2000/svg" viewBox="0 0 730 242"><path d="M551,168.5c-.76,6.7-6.01,27.08-8.5,33.5-.45,1.15-4.62,8.75-5.11,8.92-3.82,1.32-9.4-8.62-11.24-11.6-.63-1.02-1.11-2.11-1.17-3.33l-2.98,1.01c1.48-4.58-.69-9.27-3.51-12.98-2.27,1.13-4.03,5.42-5.56,6.42-1.29.84-3.09.61-5.01,1.99-3.42,2.46-11.53,16.67-14.65,17.44-6.23-.73-12.43.29-18.82.18-5.02-.09-26.49.21-28.85-.27-1.5-.31-4.31-4.42-8.47-2.91-2.97-4.68,2.69-9.77,5.83-13.39,9.5-10.98,22.02-17.82,31.02-28.98l-2.92-2.08c-.36-1.52-.26-2.77.91-3.93,2.93-2.92,24.98-1.11,30.56-3.07l1.94,1.59c3.22,7.27-6.48,15.86-8.07,4.93l-13.74,1.24-9.66,12.33c5.33,3.26,13.29-3.01,17.52,3.5,1.84,4.46-13.38,3.15-14.9,3.29-3.77.35-19.83,14.67-22.53,18.31-.88,1.18-1.55,1.43-1.09,3.39h7.99s-.93-5.36-.93-5.36l2.33-1.58c9.93,2.37,19.72,3.3,28.96,7.89,4.34-5.91,9.74-11.14,14.05-17.04,2.89-3.95,13.86-23.96,18.08-23.93l6.59,3.65c1.1,5.15-6.4,9.44-5.69,12.37.57,2.32,8.13,17.03,9.77,19.33.98,1.37,1.81,3.01,3.83,2.66,1.07-10.22,5.94-19.74,7.72-29.77.76-4.28.75-25.21,3.78-25.21.47.64,2.5,2.17,2.5,2.48,0,5.87.63,13.41,0,19Z"/><path d="M271.5,93c.3,0,.81,1.19,2.02.13l17.42-21.71-1.98-2.02c-1.96-5.47,11.71-8.59,12.96-4.77.36,1.21-.05,2.25-.37,3.39-1.58,5.59-20.64,25.61-25.54,31.76-3.17,3.99-6.36,8.2-9.44,12.28-1.16,1.54-5.75,12.02-9.12,6.98-3.06-4.57,9.55-14.89,10.54-20.05l-15.99,2.5c-4.17,3.53-12.72,17.5-17.73,18.32-3.93.65-3.68-2.59-5.74-2.88-9.31-1.33-18.66,2.43-27.98.99-1.29-.2-13.89-4.05-14.52-4.48-3.57-2.38-3.62-10.95-2.77-14.69,1.89-8.31,19.39-21.25,27.05-24.95,5.98-2.89,12-5.57,18.59-2.72.26,3.31-.22,7.12-3.37,8.95-4.26,2.47-4.87-1.05-6.89-.89-3.5.27-18.12,15.13-17.59,18.22,4.38,5.81,10.31,6.45,16.18,8.88,6.24,2.58,7.61,5.79,16.2,3.69,3.86-.94,2.77-3.24,4.55-5.45,6.54-8.07,16.25-24.54,22.57-30.43,2.21-2.06,6.77-4.39,8.23-.58-1.49,3.17-14.69,17.81-14.78,19.01-.17,2.46,2.35.5,2.48.5,4.99,0,10.02.16,15,0ZM210,110.01c-3.6.97-9.31-5.6-10.64-5.87-2.44-.49-5.78,5.2-9.35,2.86-.5,3.09.81,1.59,2.5,1.96,5.01,1.1,11.21,3.68,16,3.05,1.36-.18,3-.59,1.49-2Z"/><path d="M112.79,55.21c4.47,4.48-7.74,19.42-11.31,22.76-10.61,9.95-22.16,18.18-37.54,16.55-5.51,4.22-7.07,19.38-12.94,21.99-4.14,1.85-3.67-2.81-4.49-2.5l-7.47,2.98c-.27-1.41-1.04-2.48-.63-4,.63-2.3,9.56-16.44,11.56-19.51,3.41-5.21,19.66-28.22,23.5-30.5,2.22-1.32,6.02-2.82,8.79-4.25,3.01-1.56,11.73-6.45,14.42-6.51,1.88-.04,4.01,2.84,6.19,3.23,2.61.47,8.02-2.14,9.91-.24ZM106,61.01h-7c1.08,5,.96,7.68-2,11.98,1,1,3.86-2.66,4.3-3.26,2.06-2.88,3.38-5.46,4.7-8.72ZM91.99,65c-5.01.07-8.88,1.68-13.07,4.42l-9.92,17.57c6.24,1.01,26.09-16.41,22.98-22Z"/><path d="M399.26,192.25c3.1-2.63,5.65,1.2,8.29,1.7,3.87.74,15-1.25,16.93-4.98,1.7-3.27,1.91-9.82.29-13.25-3.08-6.52-14.46-4.27-9.27-15.74,2.38-5.27,18.54-8.59,24.02-8.03,2.84.29,11.93,4.62,13.02,7.07,2.06,4.6-9.32,14.1-10.52,9.41l2.5-5.46c1.46-4.03-12.83-.55-13.49,1.61.05,3.61,3.67,5.68,5.03,8.84,2.38,5.52,4.46,15.36,1.77,20.9s-6.42,9.81-12.44,10.54c-5.67.69-21.03-1.53-26.42-3.35-1.45-.49-2.96-1.25-3.01-3.01,0-.35,3.03-6.04,3.3-6.27ZM426,160.01c-2.88.1-5.71,1.87-4.98,4.97l2.97,1.03,2.01-5.99ZM426.79,198.78c1.35-.78,7.82-10.24,6.2-12.78-2.77,1.61-1.78,4.91-3.97,7.52-1.28,1.54-5,3.76-7.02,4.49-.23,1.82,4.2,1.1,4.78.77Z"/><path d="M453.39,76.62c.44.66,1.82.73,2.23,2.31.88,3.38-2.77,6.85-5.1,9.1-1.35,1.31-9.82,6.37-8.52,7.97,4.6-2.98,11.6.36,15.47,0,4.92-.44,10.68-22.85,19.51-20,2.04,2.04-9.32,15.64-10.42,19.06-.61,1.89-.41,5.68-.61,5.89s-2.9-.2-4.53.96c-3.67,2.61-11.19,14.07-14.91,18.09-2.7,2.91-8.76,10.11-12.89,8.91l-1.48-2.25,12.86-21.67-11.45-3c-1.98,3.54-8.1,7.08-9.68,10.44-1.08,2.28.2,3.79-.83,5.01-2.73,3.23-10.82,6.41-11.13.04-.22-4.43,4.16-5.73,7.12-8.98,6-6.58,13.59-13.71,18.97-20.31,2.89-3.55,7.87-13.2,10.47-15.26,3.33-2.65,3.68,1.8,4.94,3.67ZM454,100.01c-4.4-.54-7.67-.05-8,4.99l5,.57,3-5.55Z"/><path d="M389.01,101c3.32-2.99,6.6-.16,8.3-.23s3.76-1.73,6.22-1.82c3.07-.12,6.96,1.98,9.64,1.54,1.03-.17,6.57-5.19,4.33-5.49-4.91-.84-12.32,3.36-16.84,1.86-2.45-.82-2.39-4.94.02-5.68,6.06.38,27.31-9.41,28.18.5.07.77-8.15,11.19-9.36,12.32-2.72,2.54-7.4,4.78-10.51,7.49s-8.77,11.84-12.9,9.42c-3.08-7.39,7.8-9.36,7.91-15.91-1.05-1.13-11.86,5.97-13.96,6.53-1.27.34-11.94,2.19-12.57,2.12-1.45-.18-4.48-4.86-4.06-6.64.27-1.16,6.9-11.55,8.08-13.03,2.61-3.27,19.3-17.64,22.5-18.51,3-.81,8.02-.56,9.55,2.51,2.73,5.46-3.47,2.88-5.01,3.01s-16.16,14.64-18.02,17c-.79,1.01-1.93,1.28-1.48,3.01Z"/><path d="M160.69,66.31c3.01,2.13,6.29,12.33,9.73,14.76,1.72,1.22,3.77.65,5.54,1.46.75.35,5.84,5.56,5.93,6.1l-4.88,6.91c-5.35-2.52-12.27-.59-15.99,3.95,2.72,1.78,7.67,9.02,9.98,10.06.97.44,1.72-1.22,3.06-1.11,8.46.65,6.5,16.92.95,14.11-2.53-1.28-7.93-9.79-10.37-12.21-5.79-5.75-12.31-11-20.13-13.38l-8.78,16.81c-2.99.4-8.31,3.42-10.79,1.76-1.86-1.59-.64-3.25.2-4.9,4.23-8.29,13.17-15.38,18.86-22.42,3.71-4.6,6.73-9.81,9.97-14.75,10.01-2.02-3.38,13.29-2.5,14.53,5.3,4.29,10.61,2.54,16.52.98l-10.25-17.76-6.66-.29c-3.57-6.43,5.67-7.4,9.6-4.62Z"/><path d="M654,166.01c1.14,2.37,1.96,5.26-.53,6.99-8.03-4.13-18.32,1.33-25.44,5.5,19.69,14.38,14.87,31.89-10.53,31.58-3.73-.05-14.93-2.32-18.54-3.53-3.94-1.31-5.68-8.38-2.33-9.48,2.69-.88,6.55,3.42,9.92,3.83,7.51.92,27.15-1.4,20.29-12.24-4.29-6.76-17.64-11.69-5.17-18.51,10.6-5.8,25.75-7.14,36.96-12.14,5.17-.51,6.22,7.78,1.43,8.55-1.23.2-3.47-2.44-6.05-.56Z"/><path d="M318.62,159.63c-6.77,10.02-22.41,8.49-28.88,13.35-2.98,2.23-9.97,18.3-10.9,18.86-.65.39-4.47.38-4.78.07l-.56-2.9c-4.56,4.09-4.41,12.49-12.5,10.99l.23-4.26,31.77-45.25c-2.44-.81-2.43-1.78-1.87-4.37l5.89-1.13.09-4.89c1.34-.35,2.82-.26,4.14.14,2.68.83,15.95,6.66,17.77,8.23,1.09.94,2.82,2.25,2.79,3.83-.86,2.53-1.68,5.09-3.19,7.33ZM313.99,154.98c2.28-3.25-13.77-6.84-16.45-4.04l-1.55,5.05,3.98,1.5-3.97,6.51,17.98-9.02Z"/><path d="M108.44,119.46c-3.01,2.14-7.97,5.4-11.89,2.48-2.06-1.54-1.08-3.48-1.89-4.62-.89-1.25-3.95-3-4.51-5.06-.72-2.65,4.59-13.44,6.41-16.2,2.97-4.5,12.2-16.14,15.9-20.1s9.16-8.44,14.83-6.75c2.78.83,8.56,9.39,8.77,12.3.77,11.02-18.89,31.73-27.62,37.94ZM105.01,97.99l6.35-2.84,2.56,3.21c-3.85,5.29-10.11,7.91-14.86,12.2-1.57,1.42-.77,1.17.47,2.44,3.78-3.97,11.65-4.71,15.03-6.96,2.14-1.43,12.78-16.53,13.67-19.32,2.72-8.56-3.38-15.66-10.26-8.25-3.14,3.39-.34,3.76-1.43,6.46s-5.2,5.07-7.09,7.05c-.63.65-5,5.47-4.43,6.01Z"/><path d="M393.5,173c.75.21,2.53,2.47,2.54,3.5l-1.7,2.34c-6.05,1.63-16.99-2.48-21.89,1.12-2.7,1.99-8.04,12.39-10.45,15.55,3.64,1.67,22.98-7.33,24.06-2.85.37,1.56-1.15,6.53-2.25,7.17s-7.2-1.19-10.24-.77c-5.06.7-15.99,6.88-20.6,2.46-1.05-.76-1.03-1.62-.85-2.79.63-3.93,11-14.63,13.78-18.36l-1.47-5.39,6.69-2.58c-.42-5.62,3.45-8.93,6.84-12.93l.02-1.44-2.98-1.56,1.41-3.54,36.98-4.98c.48.13,3.58,7.77,2.15,9.08-4.16,4.68-6.35-1.07-8.01-1.11-7.03-.18-16.04,3.39-23.52,2.11,2.8,6.15-3.44,10.18-6,14.99,4.19.74,11.86-1.02,15.5,0Z"/><path d="M344.73,153.27c1.36,2.06.56,7.27-.51,9.45l-9.21,11.27,9.97,2.07c-2.73,5.74,5.12,5.84,3.55,10.96l-3.81.81-22.08-8.92c-1.7,3.31-3.33,6.36-5.71,9.27-3.06,3.74-8.15,4.01-3.9,9.32-1.58,4.96-7.39,5.82-12.02,5.49-.44-3.04.46-5.13,1.8-7.7,4.98-9.59,14.61-18.84,19.38-28.62,1.63-3.36,3.8-12.92,5.32-14.68,2.49-2.87,14.96-2.16,17.23,1.27ZM326.01,171c5.33-3.59,12.17-7.05,13.57-14.02l-5.57-1.98c.94,3.02-9.19,14.68-8,16Z"/><path d="M302.01,110c3.37-1.35,7-.57,10.26-1.23,6.88-1.38,18.37-7.41,24.34-7.75,3.36-.19,3.9,1.87,3.25,4.86l-39.42,13.03c-6.96-5.4-6,4.59-13.35,3.02-1.01-2.29-1.03-3.07.03-5.25,2.1-4.32,13.18-17.51,16.91-22.15,2.3-2.86,5.55-5.22,7.94-8.06,4.99-5.94,9.41-12.61,14.46-18.54l4.61-.47c3.22,2.22-5.69,10.25-7.45,12.62-2,2.69-3.54,5.74-5.61,8.39-1.79,2.31-18.03,19.45-15.97,21.52Z"/><path d="M618.84,155.16l1.16,3.83c-5.62,3.18-14.82,1.53-19.8,3.67-1.97.85-1.18,4.47-3.82,5.12l-7.3-.68c-1.25,1.06-4.5,27.44-6.35,32.14-.99,2.52-3.09,3.74-5.33,1.82l-1.19-2.35,7.75-30.22c-.19-3.93-24.07,3.34-20.88-6.4l55.74-6.93Z"/><path d="M535.81,69.18c2.54,4.46-10.79,13.36-11.37,4.75-4.62-.09-9.32.35-13.93.06-2.53-.16-4.98-1.56-7.16-1.65-7.33-.27-16.8,2.57-23.91,1.7-1.65-.2-3.51-.25-3.49-2.54.03-5.28,11.68-3.2,15.56-3.55,12.19-1.1,27.76-3.32,39.93-.9.77.15,4.16,1.79,4.36,2.13Z"/><path d="M381.86,73.13l-.38,3.85c-5.09,4.92-9.59,10.52-13.9,16.1-2.24,2.89-3.27,6.36-5.6,9.4-1.98,2.57-13.93,15.31-17,13.09-1.17-1.03-1.22-2.58-.99-4.02.28-1.81,10.74-12.24,12.99-15.07,6.16-7.76,11.42-16.26,17.32-24.18,2.56-2.28,4.93-.07,7.57.83Z"/><path d="M503.01,85l3.99.52-.93,3.06-33.8,32.27-2.29-.28-1.92-3.08c7.15-7.28,14.37-15.03,20.92-23,2.55-3.11,11.23-18.36,15.5-17.48,4.58.94-2.32,7.06-1.47,8Z"/><path d="M695.73,186.27c.65.53,2.13,4.32,2.25,5.32,1.09,9.61-10.03,11.4-8.97,6.92l2.76-2.99c-.83-3.61-5.81-3.62-4.83-7.91.38-1.69,6.77-2.98,8.79-1.33Z"/><path d="M695.63,162.41c2.79,1.36,3.42,5.36.97,7.69-19.26,7.79-12.2-13.17-.97-7.69Z"/><path d="M551.61,27.1c5.19-1.58,3.66,7.12-1.09,5.89-2.62-.67-.76-5.33,1.09-5.89Z"/><path d="M582.99,21.99h-2.99c-.38-5,3.37-5,2.99,0Z"/></svg>