<?xml version="1.0" encoding="UTF-8"?><svg id="Layer_1" xmlns="http://www.w3.org/2000/svg" viewBox="0 0 1138 780"><path d="M990,597l-2.55,7.95.14,6.11c-1.02,1.5-31.56,2.57-36.15,2.78-19.48.9-39.45.89-58.88,1.18-70.77,1.08-141.88.55-212.06,4.17-5.97.31-10.85,2.74-16.5,2.8,1.48-10.7-1.41-21.35-1.98-31.52-.72-12.65-.68-25.49-1.06-37.95-.48-15.93-2.36-38.98-1-54.08.86-9.47,7.65-5.77,8.12-8.08.03-3.18-1.78-5.72-2.08-8.86-.64-6.6-.18-19.86-.04-27.06,1.35-72.14,4.3-145.28,5.1-216.91.11-9.75-.56-17.99-2.14-27.45-3.85-1.66-22.32-4.16-24.47-1.16l-.48,34.53c-.04,6.01.21,12.03.03,18.03-.78,27.14-3.99,53.66-4.95,81.05-1.05,30.15-1,59.75-3.05,89.95-.51,7.54-2.47,15.92-2.97,23.03-.59,8.36,1.49,23.62-1.21,30.79-.7,1.85-2.91,1.83-3.88,3.12-1.24,1.65-.54,4.22-2.44,5.56-7.77-1.36-3.16-7.84,1.02-10.99l-.99-1.97-13.09,2.9c-71.11-2.93-143.13-3.45-214.73-1.5-3.34.09-6.99,1.64-10.19,1.65-43.61.04-87.34-2.48-130.96-3.12-33.9-.5-67.7,0-101.54-.95,1.26,4.73,9.64,8.31,3.5,12.98-7.51-7.09-9.16-12.15-9.54-22.44-.34-9.19.11-19.49,0-29-.75-68.18,4.82-136.62,5.09-204,.02-6.17.77-15.42,0-21.1-.46-3.46-2.99-3.7-3.12-6.88,9.18-4.09,3.74-17.03,6.15-25,1.02-3.39,4.13-4.16,4.75-6.29.13-.47.31-9.16.21-9.74-.64-3.8-8.5-3.23-11.86-4.22-8.93-2.63-17.64-6.83-26.72-9.14-1.07.45-1.31,1.25-1.47,2.32-.4,2.58-1.36,17.15-.49,18.51.56.88,2.46,1.14,3,2,.28.45,1.53,9.31,1.53,10.55.02,4.73-3.54,15.83,1.01,18.91,2.57,1.74,7.02.77,8.94,4.04-2.35,3.63-4.47,1.94-7.97,1.5-1.08,1.14.87,11.29.79,13.49-.67,18.08-3.9,38.78-5.79,57.01-6.87,66.31-9.42,133.19-15.51,199.49l-5.98,12.99c-5.84-4.17.76-10.68,2.05-15.93.62-2.51,1.23-7.84,1.43-10.57,2.41-33.71,3.77-67.67,5.97-100.94,3.15-47.7,9.53-95.34,13.02-143.06.18-2.45.11-11.26-.74-13.2-.79-1.8-2.77-2.54-3.22-4.81-1.36-6.99,1.31-17.95-.04-24.96-.44-2.32-3.09-3.68-3.72-7.27-1.16-6.58,5.4-18.95-1.34-22.67-10.05-5.56-28-8.39-39.39-10.61-6.54-1.28.56-4.95,4.97-4.96,26.24-.09,52.59,1.03,79.04,1.04,78.42.04,157.79-1.81,235.78-2.43,97.08-.76,193.07-.46,290.21-1.57,13.22-.15,26.86.44,39.95.02,3.41-.11,5.24-3.07,7.01-3.07s3.44,2.8,6.04,2.97c4.23.28,12.33-2.91,14.96-2.91,1.54,0,3.96,1.77,6.95,2,34.36,2.55,77.13.29,111.97-.23,58.77-.87,116.14-4.78,174.08-7.83,4.7-.25,8.92.63,14.71-.29,1.19-.19,4.85-.25,4.79-1.7l-51.38.09c-103.5.73-208.22,3.01-311.07,3.94-9.05.08-47.34-1.65-52.53.47-.93.38-1.67,1.83-2.52,2.48-2-5.42-5.97-2.1-9.89-2.09-194,.38-387.61,4.19-582.06,7.14-3.72.06-15.11,1.04-16.38-2.71-2.18-6.46,1.4-13.8,8.83-13.35-.36-2.91-5.61-1.61-6.01-1.99-1.62-10.7,13.41-5.81,20.55-5.96,7.99-.17,17.06-2.63,24.91-3.08,18.98-1.07,48.51,2.32,66-1,2.23-.42,3.44-2.47,6.09-2.91,8.41-1.38,21.37-1.77,31.07-2.93,66.96-8.06,135.09-15.04,201.76-26.24,11.56-1.94,25.95-7.22,37.26-7.73,8.49-.39,18.68,2.05,27.01,2.7,31.86,2.51,67.67,2.15,99.9,1.19,29.9-.89,59.43-4.73,88.97-8.03,7.1-.79,15.9.19,22.93-1.07,9.74-1.74,13.57-3.79,25.04-2.93,36.13,2.7,70.75,13.79,106.27,19.73,49.27,8.24,99.11,9.36,148.64,14.36,19.37,1.95,37.03,3.96,56.84,4.65,9.7.34,15.16,1.39,24.28,2.23,17.83,1.64,37.77-1.32,55.82.18l1.65,2.32-6,7.01c-1.14.7-12.96-.28-15.45-.54-20.1-2.12-41.72-3.8-62.01-3.91-4.85-.02-9.7-.09-14.54-.04.38,1.81,1.97,1.86,3.46,2.03,21.62,2.37,44.45,1.88,66.02,3.98,5.47.53,11.06,2.32,16.52,2.99l-.48,3.01-5.52-.02.02,6.94,3.97,1.07-.46,3.02c-10.17,6.32-19.84,13.44-29.45,20.55-6.74,4.99-17.21,15.87-25.05,17.94-1.93.51-6.6.28-6.93.57-.29.25-.27,2.56-.86,3.6-5.66,9.84-2.8,5.27-3.24,15.78-.13,3.08-2.91,12.17-2.82,12.82.14,1.03,2.17,3.14,2.6,5.42,5.36,28.91,2.48,71.99,3.27,102.73,1.32,51.59,2.46,103.63,5.97,155.03.49,7.2-1.17,17.43.04,23.96.64,3.45,5.26,5.48,3.84,9.9l-2.37,1.64c-9.47-8.7-5.92-20.09-6.47-31.54-3.4-70.97-6.03-142.15-7.08-212.92-.14-9.66.49-19.44.08-29.08-.15-3.6-.62-16.63-1.25-18.75s-3.75-3.38-4.73-5.34c-.25-1.44,3.16-3.54,3.73-6.07,1.44-6.39-.59-13.33.26-18.74.63-3.93,4.32-4.78,3.94-8.56h-37.5c-5.41,0,4.92,10.04,5.3,11.72,1.01,4.49-1.78,8.06-.36,12.35,1.52,2.11,15.39.71,16.56,3.44,2.08,4.84-9.58,3.07-10,3.49-.19,6.15.26,12.38.05,18.54-2.36,69.22-5.88,141.5-5,211,.19,14.79,2.77,19.84,6.31,33.61,1.23,4.77,2.05,15.62,3.86,19.14,2.54,4.96,11.78,4.5,13.55,11.45.51,2,1.48,14.23.09,15.11-.67.42-3.41.36-4.34.16-5.25-1.15-2.17-11.21-5.06-14.96-1.76-2.28-6.44-1.74-9.5-4.5-2.38-2.14-4.07-6.49-4.96-9.55-3.56,1.26-1.12,4.33-1.19,6.52-.19,6.73-4.39,4.28-6.81,6.98-.44.49-3.72,10.76-5.02,2.97-1.33-7.97,5.57-5.81,6.78-12.22.6-3.19,1.18-11.29,1.29-14.8.69-21.31-8.48-48.52-12.75-70.25-2.55-12.98-9.39-41.06-9.38-52.7,0-2.81.55-7.39,3.12-8.96,2.36-1.44,15.88-2.55,17.06-.95,5.25,7.18-7.61,6-9.52,7.3l-.63,1.57c3.26,22.82,4.78,46.29,11.06,68.53,3.63-2.12,1.26-7.44,1.36-10.33,2.07-59.11,2.73-118.03,3.58-177.2.11-7.51,1.99-17.71,1.1-25.02-.54-4.5-2.75-2.94-5.02-4.99-5.14-4.63.6-10.66-.19-13.75-.54-2.11-5.48-4.75-6.34-6.72s-.1-4.78-.95-6.05c-1.79-2.71-12.92.08-16.06.16-23.35.57-47.38,3.33-71.01,2.99-17.38-.25-38.11-4.79-54.93-3.03-5,.53-7.33,3.19-14-.11h-122.1s-3,1-3,1c1.05,4.73-4.71,9.09-5.25,11.78-.6,2.96-.73,11.54-1.19,15.78-.31,2.88.76,8.5-.51,10.49-.64,1.01-3.02,1.26-3.36,2.59-.29,1.14,2.63,8.95,2.9,11.87,1.31,14.07.09,30.02,0,44-.19,30.02-1.58,59.19-2.05,89.03-.47,29.97-1.22,59.91-2.03,89.97-.28,10.19.68,20.4.05,30.54l16.94-113.59-1.61-2.3-7.95-.04c-4.45-8.96,3.34-10.38,10.88-8.83,11.27,2.31,4.83,14.65,3.86,22.39-2.76,21.87-5.35,43.8-8.24,65.76-2.24,17-2.3,34.22-6.11,50.89l-4.77,7.72c9.55-.85,19.06,1.13,28.54,1.04,6.04-.05,13.8-1.42,20.12-1.66,64.68-2.43,129.63-2.4,194.66-2,9.6.06,19.38,1.12,29.03.76l1.5,1.5c1.31,15.75-3.14,11.52-14.35,12.37-41.68,3.16-82.29.26-123.97-.05-45.89-.34-92.38.62-137.98,2.12-1.14.04-2.39.6-3.42,1.08l.79,9.41c2.25,1.56,21.51-.36,26.39-.18,13.41.47,25.47,1.62,39.19,1.65,66.54.18,132.77-4.37,199.03-5.78,7.18-.15,15.04,2.2,22.42-.29-.31-5.77-5.09-9.45-1.77-15.77,4.12-.85,9.8-3.18,8.86,3.3-.52,3.56-5.19,1.6-4.04,3.99,2.22,4.62,21.28,1.42,25.44,1.48s10.04,2.96,13.93,2.71c7.72-.49,18.23-6.18,27.41-6.46,2.08-.06,3.18.39,4.72,1.76,4-4.86-3.75-11.36-.49-16.97,5.32-.84,3.99,3.73,5.25,5.72.43.68,2.33.95,3.2,2.28,1.17,1.77,3.65,6.16,3.13,8.02-4.68,7.61-14.78,5.89-21.88,7.2-2.48.46-4.51,2.56-6.31,2.78-2.84.34-6.23-2.07-9.43.49l-1,1.99c.22,3.48-.47,7.41.23,10.79,2,9.61,10.22,19.3,12.37,26.7.73,2.51-.82,5.47-.52,5.89.22.3,2.32.66,3.42,2.12,12.69,16.85,14.84,42.05,16.51,62.5.6,7.34,3.26,13.83.05,21.07-2.61,5.86-9.03,4.15-11.05-1.08-1.22-3.16,4.64-.11,5.99-.91,4.86-5.28.53-11.52.05-16.13-1.99-19.13-1.26-37.64-10.88-55.12-1.46-2.66-6.22-11.77-8.06-4.63-.64,2.48,1.94,3.08,2.66,5.03,1.25,3.4.43,9.89,1.36,12.64.46,1.37,6.53,2.76,8.39,7.61.44,1.13,3.46,13.78,3.45,14.53-.03,1.97-3.04,3.72-2.96,6.02.05,1.54,2.27,2.92,2.98,4.99.59,1.69,4.11,16.62-.47,15.48-1.94-.48-3.5-9.9-3.99-12.05l-5.58.61c.91,4.85.59,10.14,1.14,14.86,2.07,17.86,5.14,43.16,2.95,61.1-1.76,14.37-11.6,11.76-16.51.46-6.69-15.37-7.67-34.52-10.52-50.98-4.4,2.07-7.39,3.64-12.45,4.03-27.76,2.13-59.5-1.52-88-.99-46.39.87-92.62,5.85-139.1,4.98-24.54-.46-49.39-4.19-73.94-1.94-4.93-2.22-14.74,1.09-17.39-3.7-.43-.77-2.11-6.36-2.11-6.89v-16c0-3.13,16.97.42,19.46.54,72.14,3.54,146.37-6.63,219.08-3,20.28-1.71,40.61-2.79,60.95-4.05,10.11-.63,20.4-3.5,30.51-1,.49-.37-1-1.27-1-1.49v-25.5ZM743,72c-8.42-.72-16.63-3.32-24.96-4.55-6.08-.9-14.39-2.03-20.56-2.44-6.75-.46-13.72.31-20.49,0-1.59,1.2-.01,1.82,1.48,2,10.62,1.25,21.37,1.8,32.02,3,1.39.16,3.03-1.04,4.78-.81,7.86,1.02,16.39,4.34,25.23,4.81,2.09.11,2.87.58,2.49-1.99ZM722.82,77.23c-1.88-2.87-23.25-2.79-27.31-3.24-4.41-.49-9.01-2.44-13.12-2.88-10.9-1.17-18.66,1.79-28.91,2.88-58.25,6.21-120.98,9.95-180.02,8.05-12.41-.4-27.15-3.47-39-3.08-47.94,1.58-99.46,19.62-147.83,22.17l-19.62,3.86c7.8.54,15.43,1.87,23.23,1.76,10.82-.15,18.2-.93,29.49.05,13.09,1.14,28.54-1.52,41.78-1.79,54.33-1.11,106.65,4.83,159.99,3.9,90.88-1.58,182.18-4.86,272.96-8.95l102.54.04c.21-2.57.18-1.68-1.5-1.97-29.68-5.12-60.86-7.37-90.88-11.15-10.43-1.31-21.96-4.66-32.22-5.78-8.37-.91-18.33-.12-26.81-1.19-7.02-.88-17.83-7.42-22.57.08-.08-.84.24-2.12-.19-2.77ZM433.99,73.01l-12.8,1.71-8.19,2.28c6.21.31,12.36-.98,18.47-2.03,1.79-.31,2.98,1.09,2.52-1.95ZM758.99,75.01l-12.99-2c1.21,2.34,7.04,2.65,9.63,2.87,1.12.1,3.59.93,3.36-.87ZM458.99,75.01l-19.99-1,18.73,2.77,1.26-1.78ZM528,76h-29c-.21,1.78,2.25.92,3.49,1,7.46.44,15.06,1.02,22.49.53,1.31-.09,2.49.77,3.02-1.53ZM318,92.01l-54.39,5.09-16.6,3.89c18.1.37,35.41-4.69,53.37-5.12l17.62-3.86ZM966,106.01c-15.25-1.82-31.07-1-46.54-1.06-97.44-.34-194.58,7.46-292.13,8.42-9.95.1-19.92.42-29.79.67-2.67.07-22.63-.87-22.55,1.46,4.71,2.43,9.27.42,13.51.41,29.9-.07,60.63.96,90.01.1,58.64-1.71,116.48,1.83,175-1,25.73-1.24,50.73-3.68,76.04-5.96,10.78-.97,22.94.11,32.99-1.01,1.5-.17,3.09-.21,3.46-2.02ZM487.99,116.01c-2.8-.56-6.66-.99-9.47-.98-88.54.32-177.28-3.46-265.98-1.99-51.91.86-104.25.5-156.04,4.97-1.56.13-3.94-1.02-3.51,1.48,1.26,3.92,35.26-.25,40.51-.48,67.94-2.94,136.2-3.77,204.01-3.05,48.06.51,95.79,2.67,144.03,2.08,13.19-.16,28.08.17,41.08-.48,1.21-.06,5.33.08,5.37-1.55ZM1058.99,117.01c-4.39-.31-9.15.4-13.49-.02-26.39-2.58-53.31-5.88-80.05-5.03-18.01.57-36.81,3.19-54.97,5.03-2.5.25-24.5.88-24.5,2.51,4.33,1.44,9.78,1.48,14.46,1.51,20.83.17,42.18-1.84,63-2.06,29.26-.31,61.3,1.95,90.09.09,1.44-.09,5.25-.11,5.45-2.03ZM573,115.01l-3.99.49,2.48,1.5,1.51-1.98ZM705.99,121.01c-5.67.36-10.89-1.08-16.49.02-1.6.32-1.74-.68-1.5,1.96h9.48s8.51-1.98,8.51-1.98ZM737,121.99c-.97-3.09-3.6-1.09-5.99-.98v.98s5.99,0,5.99,0ZM574,123.99c-.38-1.82-1.97-1.86-3.46-2.03-15.79-1.77-35.15-.27-51.04-.16-112.54.76-225.69-.24-337.98-.04-40.43.07-80.58,4-121.07,4.29-2.07.01-17.45-2.51-16.45,2.44,3.35,4.98,9.51,1.57,13.6,1.61,73.96.69,148.57-2.34,222.93-3.14,91.27-.98,184.69.34,276.14-2.87,5.7-.2,11.57.11,17.32-.1ZM625.99,122.01c-10.25-.26-20.26-1.79-30.47.04-1.77.32-2.99-1.1-2.52,1.95,9.64-1.62,19.66-.61,29.5-1,1.21-.05,3.72.75,3.49-.99ZM687,121.01c-2.64.18-6.78-1.11-8,1.98,2.64-.18,6.78,1.11,8-1.98ZM744.99,121.01h-6.99v.98h6.99v-.98ZM589,122.01c-3.67.31-7.95-.47-11.52-.01-1.46.19-3.1.76-1.48,2,3.57-.84,10.69,1.14,12.99-1.98ZM644.99,122.01c-2.31.58-7.68-1.32-8.99.98,2.31-.59,7.6,1.33,8.99-.98ZM1056.56,130.06l-1.55,1.46,1.52,2.49,4.46-2.5-1.49-1.49-2.93.05ZM1034,132h-15l1.01,8,6.01-6.58,5.28,1.48,2.7-2.9ZM1040.99,132.01l-4.99.49,2.49,3.49,2.49-2.5v-1.48ZM1006,133.01c-6.12-.56-5.86,4.38-6.99,8.99,2.59.6,1.75-.76,2.58-1.88.74-1.01,5.11-6.48,4.41-7.1ZM1012.01,137c1.99-.53,2.25-2.13,1.98-4-1.99.53-2.25,2.13-1.98,4ZM995,135h-18.5c-.61,0-1.92,2.06-1.5,2.99,8.64-3.25,15.35,9.28,20-2.99ZM943,137.01c-8.76-1.35-16.28-.87-5.48,6.72l5.48-6.72ZM962.99,136.01c-5.94.18-18.21-2.14-8.68,5.87,2.18-1.41,5.33-2.31,7.39-3.63.99-.63,1.79.1,1.28-2.24ZM884.99,138l-4.99,1.49c2.91,2.96,5.31,3.27,4.99-1.49ZM743.99,141.99c1.02-1-1.95-4.01-2.99-2.99s1.95,4.01,2.99,2.99ZM757.76,140.24c-.87-.88-5.25-2.58-4.67.15.66,3.06,3.19,6.08,5.9,7.6-.01-2.13.33-6.17-1.23-7.76ZM861.01,138.99h-6c-1.11,1.01,3.28,6.27,4.51,7,2.7,1.1,1.1-5.91,1.49-7ZM647.99,143.99c.19-2.7-2.6-4.39-4.99-3.98l3.51,3.98h1.48ZM662,146.99c-.25-1.53-3.4-9.57-5.99-6.99-1.64,1.64,4.75,8.21,5.99,6.99ZM781.9,144.9c.73-.46,1.7-4.18-.47-4.84-6.94-2.14-4.49,7.96.47,4.84ZM796.99,146c.48-3.54-1.07-6.44-4.99-5.99-.84.8,2.63,6.84,4.99,5.99ZM805.99,140.01c-1.59-1.59-4.58,1.4-2.99,2.99s4.58-1.4,2.99-2.99ZM822.99,148c1.69-1.73-3.12-8.71-6.48-7.99-4.12.88,4.87,9.65,6.48,7.99ZM843.99,140.01h-1.99v2.99h1.99v-2.99ZM396.85,142.17c-.13-.21-2.94-1.24-3.31-1.17l-1.53,2.48,4.99,3.51c-.2-1.37.48-3.82-.15-4.83ZM458.99,151.99c.26-5.22,5.55-14.37-4.06-9.39l4.06,9.39ZM530.99,144.99c1.01-.88,1-4.55-1.48-3.99s-.36,5.6,1.48,3.99ZM579,142.01l-5.48-1.02-.51,2c3.12.45,5.64,3.96,5.99-.98ZM602.99,141.01h-1.99v2.99h1.99v-2.99ZM969.99,147l-.49-5.99c-2.21,1.65-2.26,5.02.49,5.99ZM341.01,142.01c-.65.65.03,5.54,2.48,4.99,3.83-.87-.2-7.28-2.48-4.99ZM409.01,145.99c.79.62,2.39-.59,2.97-1.49-3.16-4.96-4.73.1-2.97,1.49ZM487,142.01h-3.99s0,1.98,0,1.98c1.87.26,3.46,0,3.99-1.98ZM591.99,142.01l-4.99.49c1.2,1.69,3.08,1.66,4.99,1.5v-1.99ZM831.52,142c-1.61.34-1.23,1.45-.71,2.67,1.15,2.7,5.24,5.36,6.69,8.31,3.22.18.15-12.25-5.98-10.98ZM929.01,158.99c1.93,2.22,6.23-7.38,6.03-9.45-.22-2.26-5.07-6.05-7.02-7.54l1,16.99ZM984.85,146.87c1.84-3.25-4.47-5.53-6.9-4.45-1.78,1.29-.7,6.42-.94,8.58l7.84-4.13ZM310.49,143.02c-.75.03-1.82,1.53-1.03,3.01,1.19,2.22,6.62,4.32,4.73.28-.51-1.1-2.91-3.32-3.71-3.29ZM372.99,146.99c1.93-1.93-3.18-6.18-3.99-2.48-.46,2.11,3.26,3.21,3.99,2.48ZM693.01,148l1.92-2.41-2.92-2.59,1,5ZM767.12,148.86l3.91-.34c3.21-3.96-2.64-5.96-6.03-5.52l2.11,5.86ZM851.99,151.99l-2.5-8.97-2.36,2.69c-1.07,1.87,3.52,7.71,4.85,6.28ZM868.99,143.01h-1.99v2.99h1.99v-2.99ZM889,165.99c1.07-.92-3.33-6.35-3.74-7.75-1.84-6.25-.39-11.69-8.74-15.24-1.89,1.47-1.24,1.15-.7,2.65,2.45,6.89,6.25,12.34,5.65,20.39l7.53-.05ZM910.65,143.09c-4.55.78-3.87,9.19-1.13,11.91,4.78-.73,6.2-12.77,1.13-11.91ZM404.99,156.99c-.21-3.66.99-12.17-3.99-12.99.34,3.47-.77,12.37,3.99,12.99ZM472.01,153c1.17,1.35,10.62-7.61,5.48-8.99-3.61-.97-5.88,6.2-5.48,8.99ZM512.01,144c.75,3.71,3.07,21.01,5.62,21.88,2.22.75,6.13.17,5.19-3.17l-10.82-18.71ZM709.52,144c-3.23.68.66,6.97,1.98,7.98l2.34-4.34-4.32-3.64ZM961,144.01c-1.51-1.34-6.31,3.01-6.79,4.69-.17.57-1.29,11.22-1.24,11.81.38,4.04,6.29,1.73,6.92-.15,1.05-3.13-1.39-12.24,1.11-16.36ZM167.56,145.03c-.76.19-1.37.93-1.11,1.99.32,1.33,7.02,8.21,8.56,7.53,4.73-2.11-2.77-10.69-7.45-9.52ZM184.99,155l-.43-9.06-5.56-.93c-1.14,1.1,4.23,9.14,5.98,9.99ZM213.99,151c1.22-3.45,1.94-6.43-2.98-5.99-.14,2.36-.59,6.24,2.98,5.99ZM251,145h-3.99s3.5,5,3.5,5l.49-5ZM302.99,149.99c1.35-6.17-7.1-7.35-2.26-1.28.61.77-.09,1.89,2.26,1.28ZM334.02,153.99l3.03-.44c5.56-4.08-9.44-16.83-3.03.44ZM535.01,145.01c.13,1.9-.8,11,1.49,10.97,4.71-3.61,4.91-9.55-1.49-10.97ZM296.99,162c2.1-2.25-9.95-16.32-11.48-15.99-1.1.23-1.73,1.64-1.03,3,.78,1.51,10.79,14.83,12.51,12.99ZM435.5,146.02c-2.51-.11-1.06,6.21,1,6.96,3.13-1.39.7-6.89-1-6.96ZM567.99,159c1.77-2.62-3.98-16.11-6.98-12.99-1.34,1.39,4.77,11.94,6.98,12.99ZM809.98,146h-1.98c-.16,1.96-.26,3.76,1.51,4.99h1.48s-1.01-4.99-1.01-4.99ZM925,150.99l-1.01-4.99h-.98s0,4.99,0,4.99h1.99ZM349.5,147.35c-8.13,0,.99,10.74,4,12.63,3.87-2.72-.11-12.62-4-12.63ZM532.99,166c1.05-1.05-4.71-15.51-6.13-17.36-1.28-1.67-1.59-1.95-3.86-1.63-.24,3.28.7,6.55,1.97,9.52,1.59,3.71,5.84,6.09,4.02,9.47h4ZM572.01,153l4.97-3.5-5.97-2.5,1,5.99ZM1026.01,156c2.93-1.29,3.94-5.03,3.98-8l-3.98,8ZM465.99,149.01c-2.93-.5-1.62.71-2.12,2.33-.45,1.44-3.34,10.72-.38,10.65,3.39-.09,2.49-10.59,2.49-12.97ZM491,149.01c-4.43-.35-8.82,1.87-7.99,6.99,5.21.67,7.25-2.27,7.99-6.99ZM990.99,149c-4.1,3.69-8.26,7.42-12.32,11.17-1.01.93-2.48.94-.68,2.35l10.07.04c1.26-.89,3.1-11.31,2.93-13.56ZM265.99,162.99c-.35-2.16-5.82-15.95-8.99-12.99-.31,2.04,7.03,15.06,8.99,12.99ZM365.98,150.01c-9.04-.12.63,11.35,4.01,13.99l-4.01-13.99ZM702.99,161c.17-4.09-.64-10.56-5.99-9.99-1.22,2.28,3.37,12.54,5.99,9.99ZM794.99,157c.82-.91-1.39-6.89-3.99-5.99-.52.54,1.54,7.05,3.99,5.99ZM195.99,157l1-3.45c-3.08-3.55-4.76-.06-2.97,3.45h1.97ZM428.99,152.01h-1.99v2.99h1.99v-2.99ZM605.98,153.02c-.2-.26-3.57-1.48-3.9.56l1.42,5.4c1.7-.85,3.48-4.66,2.48-5.96ZM617,154.99c1.91-1.77-4-4.48-3.98-1.49.01,1.03,3.31,2.11,3.98,1.49ZM627.98,152c-1.52-.14-2.35-.41-2.01,1.51.65,3.69,6.44,6.79,6.14,11.37l3.88.12-8.01-12.99ZM506.99,153l-3.03.46c-2.54,1.79,2.09,8.28-1.94,11.05,2.13,2.61,5.96,1.21,8.97,1.49l-4.01-13ZM726.99,163.99l-8.67-10.85-2.86.82c-1.94,7.85,4.38,11.41,11.53,10.03ZM732.99,159.99c1.58-10.47-6.95-7.41-2.3-1.26.66.88,0,1.82,2.3,1.26ZM750.99,163.99c1.11-1.02-5.89-11.34-7.48-10.99-3.59.79,2.13,10.51,2.65,10.83,1.05.65,3.45-.04,4.83.16ZM772.01,153c-.22,9.64,5.77,1.67,1.48,0h-1.48ZM903.98,153h-1.98c-.23,1.84-.06,2.93,1.51,3.99h1.48s-1.01-3.99-1.01-3.99ZM203.51,154.01c-2.45.55-1.74,5.6.97,4.99,2.45-.55,1.74-5.6-.97-4.99ZM686.51,154.01c-2.36.52-1.48,4.53.97,3.99s1.48-4.53-.97-3.99ZM969.98,154c-2.63-.23-1.65-.1-1.95,1.51-.37,1.99-1.56,6.09.46,7.46,2.57-2.52,2.72-5.82,1.48-8.98ZM651.99,162c.49-1.85-.96-7.52-3.48-6.99-3.42.72.73,7.83,3.48,6.99ZM560.88,156.12c-.63-.4-1.97,0-2.88-.13l-1,10h8c-.41-1.51-3.66-9.59-4.12-9.87ZM919.98,156c-2.63-.23-1.65-.11-1.95,1.52-.49,2.64-.7,5.77-1.03,8.48l5.06-1.66-2.08-8.33ZM996.99,163l2-7c-1.95.31-6.77,7.46-2,7ZM339.01,157.01c-1,1,3.95,8.58,4.97,9.52,2.41,2.21,5.58,2,4.21-1.19-.59-1.37-7.44-10.06-9.19-8.32ZM496.87,157.14l-3.71.04c-5.23,8.39.15,11.48,7.84,7.32-3.23-1.07-2.86-4.58-4.13-7.35ZM550,165.99c-1.46-1.09-6.1-10.39-7.99-8.99-.8,3.07-2.67,5.61-2.02,9h10ZM897.99,157c-1.89-.32-3.32,1.17-2.99,2.99h2.99s0-2.99,0-2.99ZM1008,157.01h-1.99s-1,4.99-1,4.99c.76.95,2.75-4.04,2.99-4.99ZM215.9,158.11l-4.9,2.38,5.99,2.51-1.1-4.89ZM314.99,158c-4.39-.79-.61,4.23,1.01,2.99l-1.01-2.99ZM445,165.99c-.09-3.04-1.18-7.94-4.99-7.99-.66.73,2.19,8.69,4.99,7.99ZM476,158.01h-2.99s0,2.99,0,2.99l2.99-2.99ZM621.99,158.01c-1-1.02-4.01,1.95-2.99,2.99s4.01-1.95,2.99-2.99ZM678.99,158c-6.7-.35-4.09,6.64,1.01,5.99l-1.01-5.99ZM611.98,159.01c-2.3-1.52-8.31,4.53-3.97,6.49,5.3,2.39,5.81-2.46,3.97-6.49ZM666.99,164.99c1.27-2.18-3.95-7.2-4.99-5.99l.44,5.05,4.55.94ZM805,163.99c.22-5.23-4.5-6.87-5.98-1.47-.76,2.78,4.84,1.05,5.98,1.47ZM845,164.99c-.49-5.27-6.26-8.92-4.56-.92l4.56.92ZM942.99,159.01c-3.27-.46-5.41,2.64-6.99,4.98l6.85-1.14.14-3.85ZM224.01,162.99c.57.57,2.98-.83,2.97-1.49,0-2.77-4.49-.02-2.97,1.49ZM278.01,164.99l4.97-1.49-3.48-3.48-1.49,4.97ZM410.99,167c.08-1.7.22-3.36-.51-4.98-2.95-6.47-9.77,5.82.51,4.98ZM418.01,167l8-1.52-3.5-5.46c-1.89,2.1-5.04,3.63-4.49,6.98ZM695.99,165c1.07-1.03-4.35-7.6-5.98-3.49-1.4,3.52,4.12,2.68,5.98,3.49ZM780.99,165c1.33-1.33-3.96-6.5-5.98-2.48l5.98,2.48ZM911.99,161c-.98-1.11-5.62,3.76-5.99,4.99l5.06-.43.94-4.55ZM455.98,163.04l-5.97-1.04c-.1,3.33,3.37,4.46,5.99,3.99l-.02-2.95ZM586,165.99c-.82-1.95-4.59-5.99-5.99-2.48-1.56,3.9,3.96,2.23,5.99,2.48ZM738.99,162h-4.98v1.99s4.99,0,4.99,0v-1.99ZM359.51,163.01c-1.06.25-1.89,2.32-1.5,3.48,6.29,5.28,5.02-4.31,1.5-3.48ZM395,164.01c-.73,7.04,9.73,3.97,4.41-.9l-4.41.9ZM483.99,163.01c-1-1.02-4.01,1.95-2.99,2.99s4.01-1.95,2.99-2.99ZM871.95,163.01c-2.72,1.23-7.48-.04-8.95,2.98h10s-1.05-2.98-1.05-2.98ZM294,167.99c.87-2.25-4.29-4.6-4.99-3.99l-.04,3.53,5.03.46ZM335.99,164.01h-1.99c-.24,1.83-.05,2.91,1.49,3.97l1.48-1.48-.99-2.5ZM904,165.99c-1.31-3.34-4.56-1.61-6.99-.98.51,2.21,5.31.47,6.99.98ZM380,165.01c-3.6-3.21-4.17,6.53-.49,2,.52-.64.75-1.77.49-2ZM179,166l-12.56.94c-1.89,3.87.94,8.87.39,12.31-.49,3.11-5.83,8.17-5.83,9.26v20.5l9.5-.99c2.77-3.38,1.55-14.41,2.7-18.32.42-1.44,5.8-6.34,5.8-7.2v-16.5ZM633,386c.96-12.45-.52-25.11-.05-37.55,1.34-35.55,6.4-71.17,7.09-106.91.15-7.88,1.25-25.31-.06-32.03-.45-2.32-2.6-2.67-3.04-5.96-.99-7.33,2.31-13.29,2.13-18.03s-3.8-5.59-4.69-8.5c-.72-2.37.88-3.85-.33-5.56-.88-.52-17.75-1.14-20.39-1.09-28.94.5-57.97.63-87.12.57-62.07-.11-123.75,1.85-185.88,1.67-18.87-.05-49.95,1.75-67.23-.57-3.32-.45-3.58-2.69-6.88-3.12-7.97-1.03-16.99.37-25.04.03-17.24-.74-34.88-2.81-52.02-3.05-10.31-.14-4.57,9.95-5.51,16.5-.47,3.3-4.53,5.64-5.73,8.34-1.77,3.99-1.68,13.31-2.54,18.46-2.06,12.41-1.56,14.05-1.64,26.27-.15,23.29-4.55,49.87-5.13,73.96-.64,26.82.05,53.8,1.04,80.55l22-1.01c2.35-2.05-20.66-27.65-20.63-31.5.01-2.3,2.77-4.61,5.14-4.6,4.38.02,4.91,5.73,9.49,5.1-1.57-4.04-4.99-5.72-.37-9.88l4.87.9,21.21,33.04,39.26-10.09c.84-1.17-7.26-23.13-7.76-27.74-.76-6.93,5.61-4.6,5.83.75,7.28-2.55,13.54-6.8,21.96-3.98l-.89-4.41c2.55-3.64,5.16-.48,6.39,2.41,1.68,3.97,5.82,22.22,7.95,24.12l1.02.52,14.62-4.05.87-82.13c-.16-19.38,4.04-38.68,5.03-57.97.31-6-1.17-34.84,1.25-37.26,1.93-1.93,16.95-3.38,20.3-3.06,21.33,2.02,43.26,1.08,64.91.79,57.06-.75,114.25-1.4,171.01,0,6.11.15,29.52-1.06,32.94,1.14,6.85,4.4,2.03,18.43,1.61,24.42-3.27,47.24-2.22,96.54-3.06,143.94-.21,11.62.83,23.44-.72,34.92l2.22,2.22,36.55-.59ZM667.83,169.24c-1.12,0-2.67.8-4.29.8-3.67,0-22.9-.83-24.11.89-2.38,4.96,3.47,8.85,4.04,12.91.85,6.14-5.04,13.45-.52,19.76,4.53-.07,8.94-1.01,13.54-.58,3.21.3,12.98,4.03,15.07,1.05.16-5.13.99-10.5,1.24-15.56.09-1.72-1.05-3.54-.79-5.91.69-6.3,13.45-13.46-4.19-13.35ZM590.01,386.01c.35-36.94,1.02-74.01,1.62-110.67.41-25.35,1.73-50.49,2.34-75.87.13-5.47,3.23-10.13-1.97-15.01l-280.99.55c-.57,11.63.78,23.96.01,35.51-1.21,18.09-4.46,36.48-5.05,54.95-.89,27.81,1.07,55.81-.96,83.55l8.04-1.67c-.28-15.3,2.01-30.54,3-45.79,2.03-31.41,2.32-63.27,4-95,.24-4.56-1.03-16.41.46-19.54,2.25-4.74,17.08-2.73,22.04-2.96,75.73-3.39,151.67-1.46,228-3,4.78-.1,12.88-3.73,15.55,2.36,2.05,4.67-.52,8.65-.71,13.27-2.43,57.55-1.51,115.22-3.33,172.88-.07,2.07-.83,3.91-1.06,5.94l9.02.52ZM580.99,218c-.44-3.27.83-6.32,1.08-9.51.12-1.58-.82-3.28-.73-4.85.2-3.77,4.23-8.01-1.89-9.64l-156.45,3c-1.62,1.23.02,1.81,1.48,2,13.42,1.71,30.25-1.24,44.06-.05,31.83.83,63.45-.48,94.92-1,3.36-.05,9.05-.49,12.01.07,5.9,1.11,2.62,7.08,2.87,10.32.14,1.81.77,4.55,1.09,6.69.18,1.2-.6,2.53,1.57,2.96ZM421,198.99c-.41-1.94-2-1.76-3.49-2-10.01-1.62-21.64-.12-32.05.05-17.97.3-36.04,2.63-53.95,2.96-2.08.04-4.26-1.42-6.49-1v3.99c3.95-.62,8.58-1.69,12.51-1.99,20.62-1.54,41.18-.27,62.03-.97,6.83-.23,14.29-1.94,21.46-1.05ZM573.99,205c.04-4.35-5.18-2.83-7.99-2.99-.72,3.92,5.76.77,7.99,2.99ZM526,203.01l-10,1,3.5,8.97,6.5-9.97ZM573.5,214c-3.43-.87-14.5,0-19,0-.39,0-1.51-1.3-2.5-1.01l1.5-2.99h21.5c-.37-1.82-1.96-1.88-3.46-2.04-7.43-.82-22.97.09-28.9-2.14-1.46-.55-1.31-2.58-2.34-2.84-2.69-.7-7.57.54-10.65-.02-2.01,4.26-4.05,8.42-7.14,12.06-24.05,28.33-82.28,30.56-105.95-.07-.83-1.07-3.61-8.73-5.55-6.94-.15,3.22-1.92,6.26-3.6,8.91-9.28,14.66-27.67,30.64-42.5,39.5-5.66,3.38-11.39,7.11-17.91,8.6-1.21,1.65,6.99,6.23,2,13.5-2.16,3.15-5.75,3.45-7.51,7.49-4.46,10.26-2.98,23.11-4.5,34.01,16.45,1.07,31.4-4.91,45-13.52.51-2.58-7.24-3.2-9.67-4.31-9.5-4.35-14.46-12.47-9.17-22.51,6.63-12.57,37.45-25.6,51.35-26.65,17.13-1.3,43.51,3.9,31.67,26.67-6.8,13.08-19.26,15.09-29.89,22.08-.95.63-1.8-.12-1.3,2.23,3.98-.41,7.42,2.66,11.43,2,3.12-.51,11.47-7.22,13.05-7,4.05.58-2.4,4.83-2.81,5.17-.88.75-3.24,1.96-.19,1.82l31.52-12c-.03-1.66.65-2.16-1.29-1.8-5.97,1.12-16.22,6.58-20.32,6.79s-4.69-3.61-1.89-5.96c3.48,4.57,7.8-1.5,12.5-1.03.19-2.39-2.42-3.45-2.85-5.73-.62-3.27,1.76-5.46-1.16-8.74,9.23-8.08,10.65,7.78,16.04,10.95,1.97,1.16,5.66.17,7.56,2.52-1.36,5.62.76,3.22,2.97,5.94,3.88,4.77,4.44,7.17,6.05,12.1,1.19,3.67,6.41,6.86,10.24,5.09,3.25,8.02,3.31-3.14,6.13-1.11,1.21,3.99,5.81,3.98,5.03,9.42-.51,3.57-7.71,11.48-11.33,11.32-5.98-.27-4.8-5.09-7.61-8.32-3.76-4.31-16.21-3.36-3.09-11.5-.59-3.61-3.81-3.15-5.96-5.43l1.98-4.5c-3.91-.74-3.83-2.95-8.99-1,.57-5.75-2.31-5.58-7.07-4.56-1.15.25-10.5,3.67-10.95,4.04-2.22,1.84-.77,6.28,1.06,7.97,1.36,1.25,17.91,13.48,19.02,14.02,1.21.59,2.82-.36,4.29.58,2.69,1.71,2.17,5.21,2.83,5.77.56.47,2.58.07,3.72.74,6.03,3.55,12.19,9.91,18.78,13.29h2.18c4.15-5.24,7.34-10.92,10.86-16.59.91-1.47,2.44-2.05,3.26-1.25,2.74,2.64-16.59,24.39-17.6,28.94-.64,2.88-.57,13.28-.43,16.6.19,4.77,3.63,11.63.05,14.96,2.03,3.12,5.03.59,7.48.7,4.62.2,14.37,3.66,13.32-4.43-.7-5.39-3.71-5.79-1.54-12.99,1.42-4.73,6.57-9.22,7.47-12.52,1.71-6.3-2.76-7.93,2.21-15.8,1.07-1.69.59-2.88,3.53-2.47l-2.03,46.02,1,2c4.76,1.58,11.59.19,16.87-.19,1.78-.59,2.48-8.9,2.66-11.34.67-9.39-.51-24.44,1.06-32.94.55-2.96,3.79-4.49,3.93-7.51l-8.58-7.08c-4.47-.24-7.36,5.96-10.12,6.83-4.29,1.35-11.27,1.72-12.88-3.76-.91-3.09.94-4.98.63-7.47-.38-3.03-5.32-3.92-4.06-8.83.17-.64,6.69-5.5,7.53-7.77.67-1.81-1.06-3.44-.05-4.97,1.79-2.71,7.85,1.22,6.54,3-3.53.64-6.58,6.35-3.01,8.52-7.97,3.43,3.57,8.61,7.34,10.29l5.66-4.29c-14.27-14.67,14.48-15.36,22.85-20.66.08-1.41,1.29-6.59-1.31-5.82-3.77,1.12-24.32,13.23-27.53,9.97l.58-3.09c6.57-.88,27.74-8.03,29.21-14.62.49-2.21,1.9-18.62,1.21-19.3-16.14.06-21.62,16.72-27.71,28.8-.58,1.14-.76,3.6-2.78,3.2-2.22-1.58-1.26-1.84-.72-3.69,1.56-5.28,5.92-12.33,8.78-17.22,1.14-1.95,7.08-8.3,5.39-10.04-6.59-1.3-13.38-4.13-9.98-12.04l-3.99.99c-1.06-4.72,2.65-4.73,4.99-7.5,3.34-3.94,5.52-7.79,11.27-9.73,6.77-2.28,9.71,1.35,15.8.81,2.85-5.87,1.92-12.64,1.8-18.94l-1.5-1.5c-2.46-.8-9.32,1.45-9.37-2.63l11.01-1.52c.29-.27-1.12-1.89-1.5-1.99ZM422,204.01h-6s.17,3.82.17,3.82l3.68,1.07,2.14-4.9ZM440,204.01h-3.99s0,1.98,0,1.98c1.87.26,3.46,0,3.99-1.98ZM461,204.01c-3.71-1.28-6.67,1.32-9.34,1.69-4.2.59-7.67-1.96-11.64,3.8,5.9,7.63,6.16.38,11.66-2.29l9.32-3.2ZM495,205.01c-3.8-1.07-8.58-1.52-12.51-1.01-1.37.18-3.1.7-1.49,2,4.21-.63,12.69,5.76,14-.98ZM514.74,207.25c-1.48-1.54-10.01-5.18-11.73-1.75l7.58,11.46c5.55.83,7.18-6.56,4.14-9.71ZM384.99,210c1.69-3.51.22-6.95-2.96-3.5l2.96,3.5ZM428.75,205.19c-.48.13-4.49,2.49-5.11,2.95-4.96,3.76,2.9,6.12,5.74,7.79,4.31-2.5,6.56-12.64-.63-10.75ZM393.99,206.01h-1.99s0,3.99,0,3.99c1.99-.53,2.24-2.13,1.98-3.99ZM403.99,206h-3.99c.18,2.68-1,6.03,1.49,7.98,2.41-2,2.74-5.05,2.49-7.98ZM347,208c-.17-.23-3.61-1.47-3.93.6l.95,6.4c2.23,2.12,3.23-6.67,2.99-7ZM375.99,207.01l-2.94,2.41.95,7.59,1.98-.48c-2.29-3.02-.09-6.3.01-9.52ZM465,208c-.89,6.14,6.75,3.96,10,1.48-.88-4.78-6.62-.42-10-1.48ZM354.01,219c3.37-2.38,4.25-15.54-1.94-9.37l1.94,9.37ZM367,209c-6.3-3.03-3.34,7.03-1.5,10l1.5-10ZM461.79,209.23c-2.42-3.44-13.15,1.93-13.79,6.25,4.4,7.05,18.21.05,13.79-6.25ZM486,210.01c-2.71.09-7.45-3.94-7.99.48l5.48,2.56,2.51-3.04ZM505.91,218.92c.76-4.16-2.4-11.68-7.17-10.75-7.96,1.56.22,7.17-.72,11.82l7.89-1.07ZM440.81,219.82l2.15-3.33c-1.57-1.07-6.21-5.71-7.95-4.49l-2.02,6.99,7.81.83ZM164.81,213.2c-10.13.18-5.67,4.18-5.77,9.35-.87,47.69-3.41,96.22-4.08,143.91-.04,2.88-.2,22.63.48,23.6,1.25,1.78,6.27,1.04,7.98-.14,3.28-2.25.45-4.71.58-7.42,1.72-37.82.17-76.03,2.02-113.99.79-16.17,4.49-32.75,3.04-49.06-.29-3.22-.35-6.32-4.24-6.25ZM332.99,220.99c.25-2.35,2.12-6.76-.98-7.99l.98,7.99ZM490.68,213.16c-6.15.51-3.68,9.83,2.67,7.71,3.91-1.3.3-7.96-2.67-7.71ZM383.99,220l1-5-2.94,3.56-.05,1.43h1.98ZM472,215.01h-4.99s0,1.98,0,1.98c1.91.15,4.39.27,4.99-1.98ZM429,219.02l-4.99-2.02,3.56,3.94,1.43-1.93ZM485,219.99l-2.64-2.83-4.35,2.34,6.99.49ZM463.99,218h-1.47s-3.52,2.98-3.52,2.98c3,2.35,6.78-1.06,4.99-2.98ZM450,220.01l-5.99-1.01c-.74,3.31,5.16,3.5,5.99,1.01ZM323,358l2.99-137c-2.22.91-2.63,5.48-2.86,7.63-3.16,29.67-1.21,62.42-3.14,92.86-.73,11.59-2.78,23.2-1.85,34.87l4.85,1.64ZM372.99,229c2.51-10.93-2.79-9.61-2.99,0h2.99ZM393.99,225.99c.26-1.87,0-3.46-1.98-3.99v3.99s1.98,0,1.98,0ZM443,228.99c-.19-5.16-5.79-6.7-9.99-6.99-1.98,3.71,9.15,7.78,9.99,6.99ZM379.01,229c3.07-1.07,1.64-3.62.98-5.99h-.98s0,5.99,0,5.99ZM484,223.01c-9.64-.22-1.67,5.77,0,1.48v-1.48ZM505,223.01l-6.02.47c-3.88,6.13,3.96,2.69,6.02-.47ZM356.99,224.01c-3.71-.83-1.43,4.87-1.99,6.99,3.71.83,1.43-4.87,1.99-6.99ZM364.99,228l-.49-3.99-1.5,2.48,1.98,1.51ZM456.99,230.99c2.02-5.09-10.63-7.63-11.99-5.98,2.51,4.45,6.92,6.46,11.99,5.98ZM494,224.01l-6.97,1.49c.04,2.07,7.78,2.65,6.97-1.49ZM348.99,232l-.49-6.99c-2.27,1.79-2.3,6.02.49,6.99ZM478.99,228.01l-6.99-3.01c-.71,4.57,4.64,6.8,6.99,3.01ZM489,230.01l-6.98,1.49c-.01,2.46,6.85.68,6.98-1.49ZM357,239.01h-2.99s0,1.47,0,1.47l1.5,1.51,1.49-2.99ZM370.01,243.99h1.48s1.47-1.55,1.47-1.55v-1.89s-1.46-1.55-1.46-1.55l-1.49,4.99ZM335.99,240.01h-1.99s0,3.99,0,3.99c1.99-.53,2.24-2.13,1.98-3.99ZM579.99,243.01c-3-.45-1.68.68-1.96,2.51-.57,3.79-.68,7.69-.03,11.48,1.41.2,1.89-2.76,1.95-3.62.21-3.32-1.09-6.79.03-10.37ZM345.99,245.01l-2.26,1.24-.73,6.75c4.35.03,2.82-5.18,2.99-7.99ZM562.01,252l-1.51,3.98c-3.44-2.93-1.36-9.65-7.5-8.98l-3,15.99c5.66,2.42,5.48-1.73,9.99-2.98.13,1.42.07,2.64-.51,3.98-.15.34-4.26,3.83-.99,3.99.99.05,5.03-2.84,6.49-3.49,2.49-1.11,9.02-.43,6.37-5.48l-7.33-1.02c-.46-.47.91-5.58-2.01-5.98ZM572.99,250.01h-1.99v2.99h1.99v-2.99ZM332.99,256l-.49-4.99-1.56,2.49,2.04,2.5ZM425,256.01c-11.67-1.17-22.78,2.63-33.35,7.14-8.6,3.66-29.68,14.56-27.45,26.1.27,1.4,3.23,7.28,4.81,5.75-2.18-3.92,1.67-3.3,2.03-4.69.78-2.95-.69-8.68,1-12.29,4.99-1.21,2.06,3.42,1.92,7.45-.04,1.11-.62,3.8,1.04,3.53-.72-8.97,8.1-18.73,17.01-18.99,1.95,1.79-7.37,5.97-8.51,6.98-15.1,13.38,7.48,22.92,19.51,18.02-.1.79.23,1.92,0,2.49-1.2,3-19.35,1.99-22.54-1.53l-2.88,1.98c-7.05-6.5-8.21-.13-.58,2.57s16.4,2.55,24.42,1.4c5.42-.78,5.62-2.6,8.09-6.89,2.13,2.22,4.97.6,6.99,3.81,10.95-6.94,25.88-12.57,28.5-26.83l-4.99.99c1.48-9.31-7.92-13.84-16-13l.99-3.99ZM335.99,262.99l-.49-3.99c-1.54,1.08-1.74,2.15-1.5,3.99h1.99ZM578.99,259.01c-1.21-1.59-1.82,0-2,1.47-1.11,9.09-.26,18.91-2.04,27.98.01,18.09.99,36.17,1.11,54.01.02,3.01-1.31,31.53.43,31.55,1.02-10.11.38-20.39.46-30.55.11-14.23,1.66-28.6,2.08-42.92s-.38-27.73-.05-41.54ZM331.99,284.99l-1.01-5.99h-.98s0,5.99,0,5.99h1.99ZM571,304l-12.01,3c2.87,8.93-3.32,14.17-7.99,20.98,3.09-.39,3.64,2.31,5.24,3.32,1.91,1.21,14.76,8.04,14.76,3.19v-30.5ZM404,305.01l-17,2c2.84,6.24-3.32,11.22-5.51,16.98-3.23,1.7.23-8.54.56-9.45.43-1.21.91-2.24,1.95-3.05-8.26-.27-14.36,7.02-22.94,9.06-3.39.8-23.15,2.63-23.99,3.5l.95,9.95c6.64-2.09,13.44-4.1,19.98-6.51,2.08-.76,3.61-2.82,5.72-3.28,1.15-.25,13.09-1.36,13.76-1.2,2.89.67.26,3.06-1.42,3.54-2.33.67-8.52.15-8.97.59-.31.3.36,2.01-.7,2.95-3.01,2.67-13.37,3.91-5.32,11.36,7.18,6.65,25.27,9.7,31.97,1.09,1.39-1.79,1.18-4.26,3.01-5.99,2-1.9,11.6-5.64,11.99-6.26l.6-11.62-1.16-10.67c-5.63,1.4-12.46,10.69-11.31,16.27.58,2.8,4.54,4.52,3.39,6.74l-3.05,2c-8.08-3.39-4.65-3.67-3.58-8.57,1.37-6.27.85-8.93,5.56-14.44,1.79-2.1,3.96-3.07,5.5-4.99ZM450,305.01l-21.82,7.18c-.75,3.57-3.22,9.14-5.32,12.17s-5.24,2.38-4.27,6.67l-5.16,1.91c-2.05,9.1.24,8.87,8.07,9.15l31.5-3.09c3.28-2.5-10.7-3.36-8.99-6.99,6-3.06,16.25,8.8,19.98,6.54.96-.58,3.88-5.73,3.01-6.54-2.41-2.24-5.35,2.94-5.68,3.03-5.54,1.45-4.58-2.84-6.76-5.09-3.11-3.21-20.13-6.51-3.68-8.07l.12-6.88c-4.84.3-11.57,14.52-15.3,13.83-.7-.13-1.41-1.3-2.21-1.59l-2.48,2.26,7.99,1.5c.53,3.48-5.03,3.7-7.38,2.85-1.43-.51-1.33-2.4-1.77-2.74-.37-.28-5.84,2.04-5.82-.61.01-1.44,3.97-2.22,4.64-2.84,2.66-2.46,5.48-8.39,8.35-11.16,4.09-3.95,10.62-5.77,12.99-11.5ZM414,308c1.27,2.53-2.78,20.05.5,19.98,8.02-6.5,16.95-20.92-.5-19.98ZM474.99,370l.82-40.31-22.8-16.69c-1.26,1.35,8.66,10.86,10.05,11.52,2.77,1.32,5.94-2.26,7.44,4.44,1.68,7.5-3.04,8.09-3.16,10.54-.04.84,1.57,2.86,1.69,4.96.49,8.96-.68,12.09,2.75,21.25.55,1.46,1.6,3.75,3.21,4.28ZM332.01,321l1.98-1.51-1.5-2.48-.49,3.99ZM479.37,369.34c-2.99,5.5-.64,11.86.07,17.72l14.55.48c9.1-8.1,2.61-18.14,4.09-28.95.48-3.48,2.49-7.55,4.9-10.09l-23.97-16.5v10s3.51-.06,3.51-.06c.57,2.15.99,4.37,1.19,6.59.64,7.15-1.25,15.12-4.35,20.81ZM367.5,349c-4.6-.47-9.82.34-14.5,0l2-15.99-15.86,5.63c-.4,14.39,6.11,28.84,4.29,43.42,3.95,2.14,8.73,3.42,13.2,3.81,4.86.43,12.8.34,17.87.21,5.57-.15,11.3-.48,16.82-1.26,1.6-.46,2.68-4.93,2.44-6.2-1.01-5.32-32.79-14.79-38.76-17.63-.56-4.92,8.26-1.2,10.69-.18,3.22,1.34,5.97,5.12,10.3,4.19-.85-5.36-1.98-8.76,2.99-12.49,0-1.11-9.88-3.34-11.48-3.5ZM407.99,335c-.88-.94-9.92,2.55-7.99,5.99h8s-.01-5.99-.01-5.99ZM558.05,342.02l-3.04,42.48c.06,1.19.44,1.97,1.64,2.35,3.18.99,13.52,1.92,14.36-2.34v-40.01c-.75-4.24-8.89-.14-12.96-2.48ZM451.01,352c1.96-.55,10.76-6.82,8.98-9-1.49.9-3.19,1.89-4.5,3.03-.54.47-5.06,5.37-4.48,5.97ZM465.99,344c-1.22-1.31-4.27,2.61-2.99,3.99s4.27-2.61,2.99-3.99ZM379,358.99c1.14.94,27.09-.08,29.04-1.45,2.22-1.57.7-11.87-1.48-12.27-10.32,2.12-22.88,2.65-27.56,13.72ZM422.71,350.78c2.31-6.19-9.05-7.27-9.76-1.33-.25,2.05.24,4.43.05,6.55,1.87,1.02,9.37-4.32,9.71-5.22ZM253.1,360.9c1,.85,20.32-2.11,21.91-3.4,2.38-1.92-1.05-7.03-1.5-9.51l-2.88-.96c-3.92,2.95-19.43.1-19.59,5.39l2.05,8.48ZM437.34,357.66c-2.45-2.11-4.77-7.39-9.34-7.65l.99,35,39.01,2c0-12.82,2.24-25.32-6.48-36.1-.86-1.09-1.23-.61-2.2-.17-8.38,3.79-12.64,14.96-21.98,6.91ZM335.98,352h-1.98s0,1.48,0,1.48l2.98,2.51-1.01-4ZM419,358.01c-1.8-.56-6.27,2.75-4.99,3.99h1.48s3.51-3.99,3.51-3.99ZM407.99,361l-11.99,2c-.65,4.53,6.36,2.43,6.99,3l-1,10.99-5,.02c.65,3.48,9.4,1.77,10.59.02l.4-16.03ZM323,362l-5,1v20.5c0,1.88,5,1.88,5,0v-21.5ZM193.52,364.25c-2.65-.21-5.53,5.82-5.27,8.11.16,1.4,5.71,9.92,7.17,9.6,7.95-2.67,2.56-17.36-1.9-17.71ZM257.12,366.1l-.61,1.91c-.62,5.64,15.53-3.18,16.47.54,1.31,3.64-3.26,5.02-3.84,7.18-.32,1.19.05,8.41,1.27,9.36,1.8,1.38,11.92,1.61,13.15-.07l-5.51-20.55-20.93,1.63ZM420,364.01c-.89-.27-7.87,2.36-5.99,3.99.93.8,5.72-2.33,5.99-3.99ZM529,388v-23c-7.05,4.96-4.67,12.82-2.12,19.62.48,1.28.22,3.07,2.12,3.38ZM308.99,366c-7.77-.03-4.38,12.02-4.84,17.35,10.61,7.55,5.74-11.79,4.84-17.35ZM284.99,369c1.64,5.16.75,15.33,7.47,16.06,10.86,1.18,7.35-8.67,7.1-16.13-1.88-2.69-11.47.41-14.57.07ZM415.99,371h-1.98c-.39,2.19-1.94,3.43.5,5l2.39-1.47-.91-3.53ZM264.01,387.01c-.2-2.07.9-9.52-1.53-10-6.51,3.15-10.76,5.68-18.09,6.88s-18.03-.67-23.38,5.11c14.44.62,28.68-.55,43.01-1.98ZM416,384.99c4.48.26,8.17.86,9-4.47-.78-3.95-8.2,2.81-9,4.47ZM472.01,388c9.74-2.55-1.13-12.48-1.07-4.53.01,1.58.91,2.99,1.07,4.53ZM575.01,386.99l3.98-1.49-2.99-5.49-.98,6.99ZM207.99,386.97l-4.47-5.96c-1.31.86-5.76,6.81-4.51,7.99l8.98-2.02ZM406.99,382.01l-7.99,1.98c1.93-.69,8.7,1.91,7.99-1.98ZM378,393c-3.71-4.29-12.14-2.02-16.5-2.2s-33.29-2.44-34.49-.8c-.55.74.9,2.99,1.49,2.99h49.5ZM395,392.99l-.44-3.05-1.21-.78-10.34.85,1.67,2.82,10.32.17ZM406.87,389.12l-8.86-.12v3.99s9.99,0,9.99,0l-1.12-3.87ZM284.99,390.01c-4.05.86-13.4-2.5-13.99,2.98,4.65-.29,10.9,1.51,13.99-2.98ZM425,390c-3.49.55-10.78-2.02-11,2.99l11,1v-3.99ZM431.5,394h23l6.49-1.99c-8.97.2-17.46-2.8-26.54-2.06-1.77.14-3.28-.25-4.45,1.56l1.49,2.48ZM627.99,391.01c-7.62-3.03-7.73,3.99,0,.97v-.97ZM264.99,392.01h-3.99v1.99h3.99v-1.99ZM213,394.01c-3.08-.76-9.69-3.05-9.99,1.98l8.54.68,1.45-2.67ZM254,393h-35c.99,5.74,11.9,1.97,16.49,2.99l18.51-2.99ZM194.99,394c-6.36,1.6-10.96-1-17.68.86-1.7.47-2.79-.73-2.31,2.13,5.86.21,11.69,0,17.47-1.04,1.77-.32,2.99,1.1,2.52-1.95ZM154,470c3.15-2,11.61,1.85,13.56-.94s-.58-18.09-.62-22.6c-.03-3.12,1.2-5.88,1.15-8.96-.16-11.34-1.95-23.25-1.23-34.86l-1.5-1.5-8.44-.56-.93-3.58c-.29-.32-1.99,1.29-1.99,1.5v71.5ZM312,398.01c-1.9-.93-8.69-2.11-7.99,1.47.43,2.22,8.73,2.7,7.99-1.47ZM329.62,397.08l-1.62,2.4c.49.56.89,1.12,1.65,1.36.62.19,11.89,1.3,12.85,1.24,3.49-.2,5.24-2.74,1.83-4.92l-14.72-.08ZM351.01,397.01c-1.93,1.93,3.18,6.18,3.99,2.48.46-2.11-3.26-3.21-3.99-2.48ZM380,399.99c-.38-1.81-1.97-1.87-3.46-2.03-3.47-.37-10.78-1.06-14.04-1.04-1.84,0-3.3-.14-4.48,1.58,1.2,1.82,2.64,1.42,4.44,1.54,5.56.4,11.98.38,17.54-.05ZM386.99,397c-1.89-.32-3.32,1.17-2.99,2.99h2.99s0-2.99,0-2.99ZM487.66,397.17l-1.67,2.33c.69,4.46,3.68.58,6.64.51,2.1-.05,3.42,1.71,5.82,2.05s16.1.52,16.55-1.57c-2.62-6.37-11.66-2.55-16.49-2.49-3.25.05-6.94-2.06-10.84-.83ZM276.99,408c.21-3.22,3.36-9.58-1.98-9.99.14,3.36-1.92,7.94,1.98,9.99ZM297.87,423.83c-.33-4.17-3.12-23.5-6.54-24.67l-9.33-1.16c2,9.18,4.39,18.44,4.1,27.89,4.35,1.61,7.95.09,11.77-2.06ZM409.5,398c-5.55-.56-11.86.41-17.5,0v2h23v-.99c-2.05.79-4.23-.88-5.5-1.01ZM421.99,400.99c.57-.57-.83-2.98-1.49-2.97-2.77,0-.02,4.49,1.49,2.97ZM454.01,400.99c2.02,2.52,8.47-2.87,1.55-2.94-1,.48-2.15,2.19-1.55,2.94ZM481.91,398.08l-11.3.02-7.6,2.38c1.17,1.77,2.67,1.44,4.44,1.57,2.38.18,15.46.58,15.53-1.55l-1.07-2.42ZM597.99,398.01h-1.99s0,5.99,0,5.99c2.54-.77,2.03-3.8,1.98-5.99ZM633,398l-30,1.01c4.18,21.76.11,43.62.95,65.53.13,3.36,1.79,5.92.04,9.45.82,1.2,16.93.33,19.44-.06,1.59-.24,3.87-.95,4.41-2.59l5.16-73.34ZM427.5,401c3.28.84,13.71,0,18,0,1.11,0,4.25,2.94,4.49-2-7.99,1.38-15.91-.52-23.99,0-.03.63,1.16,1.9,1.5,1.99ZM518,399.01c-1.91,1.77,4,4.48,3.98,1.49-.01-1.03-3.31-2.11-3.98-1.49ZM526,399.01c-.4,6.73,5,2.95,8.49,2.98,5.93.06,15.26,2.09,20.98.98,1.7-.33,2.47-1.24,3.51-2.47-1.24-1.83-2.56-1.52-4.45-1.52l-28.53.02ZM564.99,399.01h-3.99s1.01,4,1.01,4c2.2.86,3.96-3.02,2.99-4ZM590,399h-21c.9,5.55,10.92,4.52,15.56,4.06,2.75-.27,5.38-.49,5.44-4.06ZM229.99,400.01c-1.05-.12-6.91.16-5.99,2.48,1.72,4.35,7.58,2.65,5.99-2.48ZM237,400.01c-3.21-2.83-4.52,5.37-.99,2.5.76-.62,1.49-2.06.99-2.5ZM247.99,400.01h-5.99s0,1.99,0,1.99l5.99-1.01v-.98ZM179.5,471h19.5l-.21-4.77c-3.41-1.83-15.9-3.96-16.63-7.87,2.83-10.67,10.48-3.24,17.79-3.39,3.5-6.16-3.52-7.72-3.93-9.55s3.23-3.2,3.77-5.11c1.53-5.38.78-28.57.2-34.81-.13-1.35-.46-2.64-.89-3.91-1.33-1.89-13.66.06-16.61.22-1.96.11-5.25-2.38-6.35.88.7,16.9,0,33.87.81,50.85.19,3.94.43,11.53,1.04,14.97.2,1.13.5,1.86,1.5,2.5ZM211,415c11.78-1.95,12.33-16.61-2.01-14.01l2.01,14.01ZM382,475v-61.5c0-1.12-1.84-4.74-1.16-6.84l-1.34-1.66h-19.5c-1.67,2.78-.08,5.34-.21,7.5-.8,13.95-2.8,34.64-1.83,48.04.35,4.89,2.01,9.72,3.04,14.46h21ZM387,405.01h-2.99s1.01,7.99,1.01,7.99l1.99-7.99ZM393,474h22.5c.24,0,1.97-1.73,2.09-2.46-2.47-5.54-.62-9.97-.55-15,.1-7.96.27-16.13,0-24.08s-3.09-17.75-1.15-25.88l-1.39-1.58h-22.5l1,69ZM270.99,406c-8.24-.92-2.44,16.67-1.04,21.55.39,1.36.12,3.1,2.04,3.45l-1-25ZM312.86,417.85l-.8-11.41-12.06-.43c.16,9.29,2.73,15.01,12.86,11.85ZM346,406h-15l.45,5.06,1.22.81c12.98-.21-2.31,9.21-7.69,9.61l-.85,1.15-1.14,48.38-3.97-1.01-1.02,3c7.17.47,14.4-.19,21.55-.04,2.11.04,7.73,2.4,8.2-.41l-1.75-66.54ZM351.01,418c1.95-.41,1.75-2.01,1.99-3.49.23-1.37,1.39-8.17-.52-8.5-3.72-.65-1.82,10.46-1.47,11.99ZM421.99,406.01l-3.02,2.49,1.04,8.5,1.99-10.99ZM446.5,406c-5.89-.44-12.08.32-18,0-1.43.88-1.38,1.99-1.55,3.45-1.28,10.95-.79,30.66-.71,42.32.02,3.14,2.42,18.06.68,19.18h-2.85s-2.07-3.94-2.07-3.94l-.02,5,31.01-1.01-2-62.5-1-2.05c-1.16-.05-2.39-.37-3.51-.45ZM456.99,411c.15-1.91.27-4.39-1.98-4.99v4.99s1.98,0,1.98,0ZM464.09,470.91c3.69-.56,19.24,2.93,20.77-1.54,1.3-20.72-.83-41.16-3.02-61.72l-1.3-1.4-15.92-.17-1.47,1.58c.6,21.01-4,42.64.94,63.25ZM490,407c-.18-.23-3.61-1.46-3.94.6l.95,14.4c1.45.06,1.51-3.6,1.7-4.79.23-1.45,1.61-9.8,1.29-10.21ZM324.01,416.99c4.98.13,2.22-7.61.49-9.99l-.49,9.99ZM514.5,407h-18.5l-1,64.99c8.1,1.1,16.21-.02,24.54-.03,5.87,0,12.04-.06,17.91,0,9.25.09,18.34.73,27.54,1.04l-1.46-2.7-3.53.72c-4.26-20.32.72-40.94-2.14-61.37l-1.5-1.5c-4.98.36-27.63-3.14-29.88-.16-2.48,3.29-1.21,17.67-1.44,22.56-.45,9.57-1.78,19.23-1.05,28.97.2,2.67,2.79,6.8,1.56,8.52-4.22,3.21-3.11-3.11-8.54-1.45-3.67-2.14-1-15.68-.96-20.03.11-10.62,1.17-26.1,0-36.1-.17-1.46-.12-2.57-1.55-3.45ZM599.01,466c.5,4.01-2.79,8.82-5.1,3.58-2.08-4.72.28-26.78.13-34.13-.17-8.57-2.27-18.02-1.13-26.8l-2.32-1.6-18.66,1.39-2.5,63.63c1.44,2.07,28.33,2.01,32.56,1.93l-2.98-7.99ZM564.99,451.99l.51-36.01c-4.37,9.19-.96,18.67-1.9,28.14l1.39,7.87ZM599,416v20c1.4-.42,1.54-5.29,1.63-6.67.15-2.34-1.23-5.06.17-7.83l-1.8-5.5ZM261.93,417.08l-20.46,4.88.58,22c8.99.1,15.35-5.22,23.07-8.62l-3.19-18.26ZM315,472.99l-2.06-12.46.89-35.94-1.46-1.49c-3.62-1.16-11.21,5.48-15.66,7.1-3.37,1.22-7.12.95-10.29,2.77l1.73,40.38,1.5,1.57,25.35-1.93ZM232,445v-19.5c-3.69-2.96-10.05,1.91-15.01.5-.52,6.64,3.1,12.45,4.95,18.56l10.06.44ZM210.99,431c-1.43-1.45-1.81.09-1.99,1.48-.38,3.01.1,6.78.14,9.88l.8,1.2,4.06.43-3.01-12.99ZM268.97,447.96l-2.3-3.82c-7.37,4.09-15.42,6.14-23.71,7.32l-.96,4.53,26.96-8.04ZM217.99,458.99c.26-5.99-3.81-9.77-8.96-5.42.26,4.41,5.32,4.97,8.96,5.42ZM224,452l1.99,6.51c4.97,2.11,7.93-1.35,5.08-6.07l-7.06-.43ZM281.01,457c.55,4.73-1.63,12-1.06,16.46.48,3.74,4.62,3.02,3.6-.45l-2.55-16.01ZM490.99,472l-.49-12.99c-2.26,2.7-2.79,10.99.49,12.99ZM275,475.99c-.21-2.57-1.02-4.82-1.08-7.48-.05-2.05,1.76-8.29-.41-8.49-3.57,3.85-30.03,7.89-30.5,9.48-1.24,4.2,9.61,4.35,12.45,4.53,6.87.44,12.92-1.14,19.54,1.95ZM232,472c-.37-1.83-1.96-1.87-3.46-2.04-7.68-.87-15.99.86-23.53-1.96v4s26.99,0,26.99,0ZM461,476.01c-2.14.28-4.25-.65-6.33-.63-.86,0-4.88.18-4.66,1.6,1.51.32,2.73.96,4.37.93.97-.02,6.27-.66,6.62-1.9ZM572.99,478.01c-2.16-.6-4.08-1.85-4.99.98h4.99s0-.98,0-.98ZM603.99,479.01c-8.36-2.09-16.64.55-24.99-1,.4,1.88,1.97,1.81,3.47,2.02,4.54.62,10.39,1.12,14.9.84,1.18-.07,6.19-.57,6.61-1.86ZM782,502h29l-9.5-2.08c-5.33,1.71-11.43-.09-16.58.72-1.11.17-3.17-.19-2.92,1.36ZM817.99,501.01h-5.99v.98h5.99v-.98ZM927,506.01c-8.4-.61-17.07-1.57-25.5-1.45-4.83.07-10.56,1.46-14.96,1.48-16.94.07-33.82-2.35-50.55.46,0,1.69,20.19.54,22.51.58,19.61.37,39.29,1.38,59.05.96l9.45-2.04ZM728,507h18c.59-2.98-1.38-1.91-3.52-2.03l-14.48,2.03ZM982.98,563c-.32-5.25,7.48-6.11,7.06-10.45-.47-4.86-9.27-4.56-10.62-6.5s2.35-12.14,4-14.11c3.41-4.05,7.48-2,9.61-3.38,1.98-1.29-.03-8.03-.99-10.12-6.86-1.07-14.8-3.24-21.04,1.06,4.21,5.99,1.05,14.1,1,20.82-.31,1.23-6.03,2.53-7.52,2.7-29.99,3.31-60.38,1.12-90.44,1.33-62.65.43-125.55,3.15-188.58,3.75-2.54.02-16.87-1.71-17.49-1.09l.94,9.57c45.84,1.11,91.94-.74,137.6-1.52,52.03-.89,103.87-2.59,155.92-4.08,4.15-.12,12.44-.63,16.04.04,5.39,1,.37,8.47,2.47,11.43l2.01.57ZM678.01,534.99c14.53-.54,29.13,2.3,43.45.96,59.71,5.51,119.34-1.45,179-3.99,20.95-.89,42.05.63,63.04.04,3.89-.7,3.63-4.53-.95-5.04-10.06-1.14-19.66,2.24-29.06,2.12-6.93-.09-15.79-2.58-23-3.06-12.27-.82-23.85-.23-35.95.03-61.39,1.34-122.76,7.24-183.99,6.93l-12.55,2.02ZM685.99,527c-1.24,1.35-23.48-.07-18.99,3.99,2.17.17,3.39-1.74,5.58-1.99,3.83-.44,5.84,1.33,10.99.02,1.67-.43,2.92,1.01,2.42-2.02ZM670.99,534.01h-2.99v1.99h2.99v-1.99ZM961.99,537.01c-28.34.23-56.78-.91-85.01,1.49-.02.76,3.64,1.57,4.54,1.56,22.85-.4,45.79-.89,68.96-1.07l11.51-1.98ZM711,541.99c-.38-1.82-1.97-1.86-3.46-2.03-5.47-.61-12.35.24-18.08.08-3.21-.09-19.17-2.94-19.44,1.45,1.95,1.59,6,1.44,8.43,1.55,10.87.49,21.76-.58,32.54-1.06ZM1005.99,562c-.36-2.15,1.77-3.83,2.01-5.6.35-2.64-4.15-12.45-5.99-10.4,2.4,5.31-2.97,14.4,3.98,16ZM975,559c-9.88.69-20.63,3.68-30.45,4.05-17.92.67-36.06-4.73-55.12-4.05-11.63.42-23.29,3.17-34.94,3.99-53.98,3.8-105.86,5.12-160.03,4.05-10.68-.21-9.96-3.35-20.5,2.42-1.53.84-4.08-.28-3.95,1.52,10.48.04,21.01.73,31.54,1.06,12.56.4,25.34,1.44,38.08,1.82,55.16,1.65,110.04-4.25,164.82-7.89l70.55-.97v-6.01ZM778.5,561c-16.32-.21-32.67,0-49,0-.17,0-2.92.98-2.49,1.99,18.64.23,37.41.48,55.99-1-.12-2.32-3.53-.98-4.5-.99ZM799.99,560.01h-5.99s0,1.99,0,1.99l5.99-1.01v-.98ZM1001,567.99c-.95-10.42-13.18-11.13-15.01-.44.03,5.28,11.92.87,15.01.44ZM674,562.01l-4.06.43-.93,4.56,4.99-4.98ZM975,570.01l-87.99,2.48,13.45,1.54c23.03-1.03,48.23.57,71.08-2,1.5-.17,3.09-.21,3.46-2.03ZM990.8,575.19c-1.9-1.41-8.29.43-9.3-4.21-3.01,7.08-10.93,4.38-16.99,5.02-29.2,3.07-56.91,2.37-86.18,2.61-65.29.55-130.38,2.41-195.78,3.42-3.94.06-7.75.16-11.55-1.04.18,2.23-.85,13.45,1.66,14.04,29.07.2,57.79-.74,86.88-1,27.45-.25,55.34-.23,82.92-1.08,47.03-1.46,93.89-6.58,141.04-6.39,2.46,0,5.16.53,7.45,1.41,2.12-2.46,2.02-11.17-.15-12.78ZM685,575.01l-12.99.49c2.7,2.26,10.99,2.79,12.99-.49ZM1016.99,698.99c-.34-8.13.47-16.41.05-24.54-1.09-21.08-4.09-64.52-10.32-83.68-.75-2.29-1.27-4.11-4.21-3.85-4.99.44-1.04,10.3-.89,13.74,1.24,29.46,2.65,66.1,11.85,94.36.58,1.77.9,4.36,3.53,3.96ZM695.01,606.99c11.48.34,23.05-.4,34.54-.03,28.8.93,53.07,1,81.96-.16,51.42-2.07,105.43,3.18,155.87-3.93,3.76-.53,10.79-1.07,13.94-2.06,1.71-.54,1.93-1.69,1.68-3.3-.88-1.48-1.99-1.37-3.45-1.55-14.75-1.83-24.97.54-39,1.08-40.19,1.55-79.84,5.4-120.06,5.04-9.49-.08-19.38-.93-29.03-1.13-18.99-.4-38.09-1.7-56.96.04-12,1.11-23.76,2.03-35.69,4.31-1.11.21-3.97.2-3.79,1.69ZM1017.99,614c-.45-3.24,1.89-3.66,3.79-5.45l-4.28-9.54c-4.66,3.28-5.73,13.23.49,15ZM673.99,614c-1.47-4.11,3.32-13.75-1.98-13.99.76,4.17-1.96,11.26,1.98,13.99ZM683.99,600.01h-3.99s0,2.99,0,2.99l3.99-1.01v-1.99ZM973,607.01c.61,3.84,9.93.71,9.98-.51-2.36-2.87-7.05.49-9.98.51ZM690.99,607.01l-11.99-1.01c-.08,3.9,3.79,3.04,6.36,2.88.98-.06,5.56-.51,5.63-1.87ZM724,612h-30.5c-2.21,0-7.25,2.09-10.5,1.01,2.34,4.09,7.9,1.05,11.46.95,7-.2,14.03.25,21.03.03l8.51-1.99ZM982.99,631c-7.33,1.64-14.97,1.36-22.37,2.12-1.14.12-5.5.45-5.62,1.87,9.49-.03,18.5-1.01,28,0v-3.99ZM949.99,634c-2.7,1.46-7.43-1.49-8.99,1.99.85-.14,11.68,1.04,8.99-1.99ZM880,638h24.5l7.5-1.99c-9.38-.51-20.39-2.35-29.56-.03-1.68.43-2.91-1.01-2.43,2.02ZM984.99,642.99c-1.09-5.41-13.26-3.07-17.51-3-45.21.81-91.09,3.35-135.95,4.05-30.81.48-61.49-2.98-91.98-3.02-19.6-.03-43.86-.99-62.97,2.08-.84.13-3.61.69-3.6,1.41.02,2.27,1.74,2.33,3.46,2.54,6.44.77,14.88-1.41,21.22-1.67,16.04-.67,30.11.89,45.84,1.61,48.06,2.2,95.21-.5,143-1.98,16.31-.5,32.71-.03,48.95-2.05l49.54.04ZM987,649.99c-.59-2.23-2.69-1.9-4.45-2.04-12.76-1.02-30.03-.35-43.1.03-3.18.09-7.33.23-10.43.47-1.33.1-2.53-.65-3.02,1.54h61ZM773,653.01c-23.87-1.2-49.69-4.66-73.53-3.05-1.17.08-6.47.73-6.47,1.54,25.38,1.65,50.96,3.55,76.52,2.5,1.22-.05,3.72.76,3.48-.99ZM805.99,652l-3.99,1.01v.98s3.99,0,3.99,0v-1.99Z"/><path d="M868.89,204.11c2.38,4.82.05,9.04.03,13.39-.16,28.05.33,56.71.18,84.89-.16,28.73-1.9,58.48-2.14,87.07-.18,21.01,2.81,40.69,3.11,61.03.09,5.76-3.11,12.28.55,17.58,3.04-1.99,17.88.1,18.45-2.7.15-2.95-1.76-4.93-2.11-7.84-1.41-11.89-.67-29.62-.96-42.04-.22-9.31-.6-18.73-.76-27.96-.08-4.48.86-10.04.8-15.07-.33-27.21-3.76-61.34-1.11-88.01.41-4.13,1.36-5.39,5.6-6.45,4.6,1.07,2.19,4.8,2.44,7.44,5.22,54.08-.73,108.28,4.03,163.05.76,8.72,7.53,17.67-3.8,21.23-4.15,1.3-18.13,2.48-22.71,2.38-3.25-.07-5.38-1.69-8.11-2.04-4.38-.55-17.08,1.55-11.39-7.04-4.45-1.17-8.44,4.28-12.01.22-1.03-1.84-.22-8.25.13-10.61,1.61-10.65,5.35-21.44,6.8-32.2,2.15-15.96,5.83-55.35,3.06-69.9-.52-2.72-4.7-5.27-4.95-9.08s3.07-7.75,4.78-10.95c-6.76-5.72-13.83-9.34-19.24-16.57-20.12-26.91-11.23-68.18-19.08-98.93-.97.03-.35,16.43-.51,18.5-1.35,17.38-5.23,43.83-14.16,58.84-4.45,7.48-11.9,13.07-16.84,20.16,2.45,4.54,5.89,8.84,3.28,14.29-1.04,2.17-3.77,2.1-4.28,4.71-1.53,7.93.04,30.1,1.25,38.78,2.13,15.28,4.58,30.74,6.93,46.07,2.15,14.04,5.42,28.04,7.65,42.08-2.28,4.3-6.79,1.47-9.16,1.88-.94.16-1.92,1.59-3.24,1.75-2.26.27-3.41-2.47-7.65-1.84-5.79.86-4.24,4-6.03,5.55-3.36,2.91-14.05,2.08-18.67,3.19-.98-4.1-.38-5.28-5.11-5.38-2.54-1.69.55-22.23.65-26.23.72-28.39,2.77-83.36-1.85-109.59-2.91-16.53-1.54-17.96.22-34.24.58-5.36-.39-11,1.18-16.31,1.92-1.11,6.86-2.34,7.75.47l1.08,183.85c-.33,4.85,10.71,1.22,11.05-.16-.39-10.27.35-20.62,0-30.88-1.33-37.99-2.53-75.81-2.08-114,.03-2.7,1.32-5.19,1.12-7.95-.18-2.45-1.92-4.17-1.98-5.98-.11-3.53,3.47-6.52,3.95-9.98,1.05-7.56-.5-18.02-.09-26.09.79-15.62,2.41-31.31,3.08-46.91.18-4.22-2.46-11.81,1.48-12.53,19.75-3.6,40.1-2.61,60.03-2.97,2.37-.04,4.55-1.05,6.92-1.08,10.84-.13,21.72-.3,32.43,1.15ZM864.99,211.99c.26-1.87,0-3.46-1.98-3.99v3.99s1.98,0,1.98,0ZM843,210l-4.56.94-.43,9.06c5.77-.05,5.12-5.59,4.99-10ZM776,211.01c-1.84-.24-2.94-.06-3.99,1.51v1.48s1.48,0,1.48,0l2.51-2.98ZM784.99,220l.91-5.34-3.42-2.4-2.05,2.79c1.2,1.84,1.71,5.28,4.57,4.96ZM800.99,227.99c2.27-4.61,2.12-7.34.7-12.19-.3-1.03-.22-3.03-1.68-2.79-.55,2.21.84,4.56.79,6.49-.05,2.1-2.37,7.25.19,8.49ZM796.99,218c-6.14.33-1.5,8.96-.13,4.36.4-1.34.08-2.95.13-4.36ZM826,220.01h-2.99s0,2.99,0,2.99l2.99-2.99ZM835,222.01c-.67-.62-3.96.47-3.98,1.49-.03,2.98,5.88.28,3.98-1.49ZM818.01,230.99l4.98-3.5-4.49-3.49-.49,6.99ZM849.99,227.01h-3.99v1.99h3.99v-1.99ZM839.99,229c-3.67.02-3.67,2.97,0,2.99v-2.99ZM793.99,232.01h-2.99s0,3.99,0,3.99h1.48c1.57-1.06,1.74-2.15,1.51-3.99ZM859.99,235.99c1.02-1-1.95-4.01-2.99-2.99s1.95,4.01,2.99,2.99ZM782.01,239c3.93,0,3.98-3.97,0-3.99v3.99ZM834.99,234.99h-1.99c-.05,2.28-.54,4.57,1.49,5.99l1.47-1.46-.97-4.52ZM825.01,243.99c4.86.97,5.34-5.23,2.48-7.99-2.54-1.23-2.74,6.96-2.48,7.99ZM798,243.99c4.01.12,2.99-4.36,2.98-6.99-1.5.09-3.24,6.7-2.98,6.99ZM852.99,237c-3.03-.68-5.21,6.34-2.48,6.99,3.02.72,2.67-5.56,2.48-6.99ZM864.01,241.99h-7.01c-.79,4.52,2.81,7.1,7,7v-7ZM838.99,246l-4.99,1.49c2.9,2.96,5.32,3.26,4.99-1.49ZM825.01,253c3.67-.02,3.67-2.97,0-2.99v2.99ZM845.99,250c-1.22-1.31-4.27,2.61-2.99,3.99s4.27-2.61,2.99-3.99ZM852.99,251c-2.53.09-5.37,8.07-2.49,7.98,1.65-.05,3.09-6.29,2.49-7.98ZM858.01,258c2.31-1.14,4.17-4.39,1.49-5.98-2.05,1.42-1.53,3.71-1.49,5.98ZM833.99,254.01h-1.98s-1,4.99-1,4.99c2.1-.83,3.39-2.71,2.98-4.99ZM825.99,257.01c-3.15-.67-3.86,4.67-1.48,5.98l1.48-5.98ZM838.99,259c-1.1-1.2-6.19,3.8-4.98,5.99,2.64-1.18,5.58-2.48,4.98-5.99ZM796.89,264.11l-4.89-.1,3.5,7.97c2.82-2.23,2.32-4.82,1.39-7.87ZM860.99,266.01h-2.99c-.12,2.09-.38,3.75,1.49,4.97,1.88-1.23,1.62-2.89,1.49-4.97ZM845.99,269h-1.48s-2.51,3.99-2.51,3.99l3.52-.97.47-3.02ZM779.99,271.01h-1.99c-.24,1.84-.04,2.91,1.5,3.99l.49-3.99ZM826.99,271.01c-5.79,1.17-5.27,5.47-3.98,10,2.63.29,1.58-.04,2.01-1.47.38-1.27,2.32-8.13,1.98-8.53ZM846.01,281c4.5.9,5.49-4.33,2.49-6.97l-2.49,6.97ZM864.99,274.01c-1.95-2.42-4.85,6.67-1.48,7.98,3.15.05.8-6.27,1.48-7.98ZM831.99,276.01h-1.98c-2.47,6.22,2.74,6.49,1.98,0ZM857.99,276.01c-.75-.75-4.05-.46-2.98,2.48,1.24,3.45,4.3-1.17,2.98-2.48ZM841,283.99l-1.49-5.99c-1.47,1.08-1.88,2.58-1.4,4.35l1.41,1.63h1.48ZM791.99,288c3-6.12-2.59-7.76-2.01-2.5.12,1.12,1.4,2.98,2.01,2.5ZM849.99,286.01h-4.99s0,1.48,0,1.48c2.63,3.71,5.27,3.1,4.99-1.48ZM861.99,295c-.54-1.21,3.58-9.09.51-8.98-3.35.12-3.41,12.14-.51,8.98ZM854.99,289.01c-3.93-.73-1.25,6.71-1.99,8.99,3.93.73,1.25-6.71,1.99-8.99ZM843.99,292.01c-3.83-.8-1.34,5.81-1.98,7.99,2.22-.11,2.33-7.52,1.98-7.99ZM829.99,293h-2.99s1.01,4.99,1.01,4.99c2.26-.61,2.12-3.09,1.98-4.99ZM836.99,293.01c-3.08-.27-3.23,2.52-2.98,4.99.54.75,3.85-4.12,2.98-4.99ZM849.98,299h-2.97s-2,6.99-2,6.99c5.74.4,6.42-2.25,4.97-6.99ZM836.5,302.02c-1.05,0-4.06,4.13-.99,4.97,4.8,1.32,3.3-4.96.99-4.97ZM747.99,325l-1.98-14.99c-.92,4.75-2.61,11.48,1.98,14.99ZM861.99,310c-4.15-.8-3.56,6.94-1.49,6.97l1.49-6.97ZM846.99,311.01c-7.02-1.13-7.7,3.52-3.48,7.99,2.09.94,3.98-6.77,3.48-7.99ZM856.99,323.99c-4.29-.69-1.14,6.64,1,7l-1-7ZM770.99,342.99c.76-6.49-4.45-6.22-1.98,0h1.98ZM863.99,347.01c-2.2-.64-4.93,3.94-2.48,4.98,3.72,1.59,2.35-3.66,2.48-4.98ZM858.99,382h-1.99s0,4.99,0,4.99c2.26-.61,2.13-3.09,1.98-4.99ZM767.01,388.99c1.5.33,3.06-.77,3.05-2.49l-2.56-3.5-.49,5.99ZM778.99,405l-1.98-7.99c.28,2.83-3.1,7.81,1.98,7.99ZM858.99,425.01h-1.98s-1.01,3.99-1.01,3.99l2.98-2.51v-1.48ZM863.99,452c-1.22-1.31-4.27,2.61-2.99,3.99s4.27-2.61,2.99-3.99Z"/><path d="M888,241.01c-.16,3.69,3.34,5.71,3.93,9.55.47,3.05,1.24,13.85,1.11,16.89-.25,5.57-3.05,7.14-8.04,8.54-.17-6.82.2-13.7.04-20.53-.46-19.94.17-39.77.03-59.97,0-1.41-.22-6.16-1.74-6.53l-128.7,5.18-1.64,2.36c-.55,24.86,1.71,49.95-2.49,74.5-5.55-4.44-7.99-8.92-6.29-16.29.67-2.89,4.16-4.33,3.88-7.2-.23-2.31-2.47-2.1-3.14-3.2-2.04-3.3-1.59-31.55-1.96-37.8-.65-10.91-7.39-21.98,10.63-22.41,7.88-.19,18.48.7,26.88.9,21.05.5,41.09,2.95,62.05,2.03,7.58-.33,16.36-1.83,23.92-2.08,4.22-.14,20.09-.73,22.88.21,1.35.46,1.74,1.64,2.18,2.82,2.48,6.63,2.29,38.26,1.53,46.56-.33,3.65-.61,6.64-5.04,6.47ZM747.01,206c2.1-.54,2.22-2.72,1.98-4.49l-1.49-1.49-1.5,1.5,1.02,4.48Z"/><path d="M957.01,483v2.97c-15,2.29-30.37,1.65-45.55,1.98-48.31,1.05-96.47-1.62-144.95.05-23.03.8-52.52,5.59-75.06,3.04-1.17-.13-3.02-.23-3.44-1.56-1.98-6.25,14.17-2.62,16.62-2.64,32.63-.19,65.26-4.41,97.83-4.88,26.13-.38,52.04,1.69,78.01,2.07,25.66.37,50.89-1.33,76.55-1.04Z"/><path d="M714,204.5c.37-1.21,2.19-1.65,3.45-1.53,6.86.64,2.04,15.32,2.97,19.07.12.48,3.73,8.15,4.14,8.89,1.9,3.35,7.24,5.2,7.53,9.56.22,3.37-1.98,8.71-5.62,5.51l-.52-3.96c-3.14-.12-13.64-1.69-15.81.1-.45.37-.76,3.81-1.16,4.85-1.99,1.35-6.3-4.06-6.8-5.72-1.57-5.25,3.13-5.63,4.3-8.29.92-2.1-.02-4.7,1.41-6.59.88-1.15,6.1-2.36,6.1-3.9v-18ZM723,235.99c-2.29-5.46-11.95-4.81-12.99,1.01l12.99-1.01Z"/><path d="M925,224.5c.14.47,3.91,7.45,4.53,8.47,2.38,3.88,8.82,5.56,6.94,10.98-3.41,9.84-6.7.08-7.46-.46-3.42-2.39-11.05-.33-15.02-.49v5.01c-5.49,1.05-8.17-5.76-6.79-10.3.62-2.04,3.59-3.15,4.28-4.71,2.19-4.99-2-5.43,6.51-8.49v-18c0-2.91,7-2.91,7,0,0,3.92-.8,15.3,0,18ZM926.99,237.99c-1.79-6.91-8.34-4.53-12.99-1.98l1.65,2.87,11.34-.89Z"/><path d="M659,223.01c.89.81-4.7,6.55-2.98,8.99,9.81-7.17,11.04,7.27,1.55,6.02-4.11-.54-3.91-5.4-3.59-8.55.18-1.7,2.27-8.98,5.03-6.47ZM660.99,233.01c-1-1.02-4.01,1.95-2.99,2.99s4.01-1.95,2.99-2.99Z"/><path d="M714.99,269.99c-6.4,1.97-12.89-10.27-7.49-11.99,3.76-1.2,3.02,3.38,4.04,4.94,1.29,1.96,4.95,1.86,3.44,7.05Z"/><path d="M652.01,252c-.28-5.22-.4-11.17,6.45-9.99,2.14.37,3.71,1.68,3.15,3.99-1.52,6.19-5.01,3.42-9.59,6ZM659,246.99c.32-1.89-1.17-3.32-2.99-2.99v2.99s2.99,0,2.99,0Z"/><path d="M916.17,265.88l2.76.16c-.01,11.22-13.15.18-6.42-7.04,2.7-.57,3.53,5.1,3.66,6.88Z"/><path d="M655.01,315.99c-1.61-1.28,3.94-2.99,2-4.99h-5.01s-.99-7-.99-7c3.77-.78,1.65,5.51,5.48,3.99,3.29-1.31-1.44-5.33,2-4.98,3.14,1.74.47,16.11-3.48,12.98Z"/><path d="M725.06,259.04l3,.4c4.53,12.92-11.34,12.16-3-.4Z"/><path d="M930.51,260c8.26,3.61-.37,14.69-4.46,6.57l4.46-6.57Z"/><path d="M660,286.01c.13.1-1.19,2.65-1.53,2.95-4.56,4.04-5.53-3.83,1.53-2.95Z"/><path d="M1085.51,334.01c2.45-.54,3.33,3.47.97,3.99s-3.33-3.47-.97-3.99Z"/><path d="M659.99,292.01c1.59,1.59-1.4,4.58-2.99,2.99s1.4-4.58,2.99-2.99Z"/><polygon points="664 223.99 660 223.5 662.5 221.02 663.99 222.52 664 223.99"/><path d="M658,281.01c-.53,1.99-2.13,2.25-4,1.98.53-1.99,2.13-2.25,4-1.98Z"/><path d="M632.99,293.01l-.47,3.02c-3.49,2.57-3.98.79-3.52-3.02h3.99Z"/><path d="M487,279.01c-2.44,5.11,1.35,4.2,3.49,7,.73.95,3.05,6.51,3.27,7.72.64,3.42-1.11,10.82-.72,11.22.23.24,2.53-.29,3.9,1.6,1.22,1.7,1.11,4.42,1.06,6.44-1.48,1.68-12.53-9.77-10.99-12.99l3.06-.53-2.24-12.3c-4.08-.03-6.9-3.16-9.8-5.67l8.98-2.49Z"/><path d="M469.76,259.24c1.66,1.69,2.91,7.65.24,9.28-3.3,2.02-6.28-1.36-7.52-1.25-.87.07-6.52,4.54-7.48,5.73-4.37-6.71,9.79-18.79,14.75-13.76Z"/><path d="M483,276v-2.28c-1.57-4.16-6.18,10.67-9.98,5.78,2.56-5.44,4.57-12.96,11.97-9.51,0-3.67-3.04-5.72-6.48-5.83-1.55-.05-7.17,2.39-4.43-2.07,2.05-3.35,18.21.56,13.16,11.65-.95,2.08-1.96,2.57-4.24,2.25Z"/><path d="M526.99,304c1.24,1.18-3.24,4.76-4.66,4.88-3.2.28-3.85-8.92-5.39-11.33l4.7-5.49c3.41,2.28,7.66,3.42,9.34,7.44-2.24,3.28-4.75-.88-7.48,1.47-3.3,2.83.09,4.7,3.5,3.03Z"/><path d="M540.99,313c1.29,3.2-4.37,7.3-5.98,3.48-.76-1.79,4.78-3.35,5.98-3.48Z"/><polygon points="660 93.99 656 93.5 658.5 91.02 659.99 92.52 660 93.99"/><path d="M434,265.01l-.02,3.97c-4.02-1.9-5.84,4.45-7.63,4.93-1.22.33-2.91-1-3.26-.79-.74.44-.63,4.76-3.1,1.37-.44-4.29,3.66-4.35,5.67-5.81,2.32-1.68,2.17-5.31,8.33-3.67Z"/><path d="M407.51,284.01l3.4,1.63-1.41,8.35c-3.19-2.08-5.4-6.75-1.99-9.97Z"/><polygon points="366 334.01 365.5 341.98 361.92 336.52 366 334.01"/><path d="M379.99,342v2.99c-3.67-.02-3.67-2.97,0-2.99Z"/><path d="M490.51,346c2.81-.68,3.23,8.78,3.14,10.69-.18,4.04-3.74,7.86-3.7,11.83.05,4.46,8.05,13.23-4.38,11.43-10.04-1.46-.72-8.66.75-13.12.54-1.63,2.49-8.97,2.67-10.42.43-3.47-2.24-7.34,1.52-10.41Z"/></svg>