<?xml version="1.0" encoding="UTF-8"?><svg id="Layer_1" xmlns="http://www.w3.org/2000/svg" viewBox="0 0 348 160"><path d="M121.19,50.72l-53.98,25.63c-1.58,1.96,4.81,2.12,5.56,2.39,3.31,1.18,10.91,4.5,13.47,6.6,3.69,3.04,4.89,6.72,4.43,11.35-2.22,21.91-40.65,33.26-58.92,29.31-5.46-1.18-8.22-7.32-2.64-9.23,4.29-1.47,3.85,3.02,4.61,3.22.39.1,6.11.41,6.96.38,9.45-.3,23.4-4.13,31.32-9.14,4.9-3.1,15.67-13.16,11.43-19.62-1.01-1.55-8.74-6.03-10.66-6.64-4.82-1.53-14.28.45-16.55-3.52-4.16-7.26,6.81-9.84,11.12-12.11,8.15-4.29,17.37-8.61,24.98-13.3,2.92-1.8,7.07-2.72,9.3-3.92,5.08-2.72,7.72-2.07,12.97-2.82,2.48-.35,5.58-3.52,6.61,1.41Z"/><path d="M273,59.5c.53.49,1.95.39,2.6,1.19,2.7,3.27-2.2,4.03-3.15,5.99-1.69,3.47-2.49,10.3-4.39,14.3-3.33,7.04-12.19,18.17-19.05,21.79-10.67,5.63-14.81-3.9-17.78-12.59-3.01-2.64-15.54,17.64-23.21,10.41-5.31-5-10.33-20.3-9.68-27.39.15-1.67,2.06-3.79,1.75-5.86,6.65.54,4.83,4.32,5.61,8.57s2.01,12.25,3.93,15.45c3.83,6.36,10.3-2.17,14.04-4.92,2.35-1.73,6.98-4.02,8.71-5.47,1.46-1.22,2.41-5.44,5.99-5.15,7.51.62.96,8.16.61,11.46-.72,6.85,4.02,11.13,10.18,6.66,5.65-4.1,16.71-22.25,16.72-29.01,0-4.62-4.64-6.85-2.66-11.26,2.68-2.67,8.24,4.44,9.75,5.84Z"/><path d="M153.56,55.74c.44.14,2.46,3.19,1.88,4.09-2.23,2.87-2.86,8.55-4.5,11.12-2.63,4.1-4.18,7.09-6.64,11.54-2.1,3.81-10.23,15.27-11.05,18.07-.69,2.35,1.09,4.03.06,6.23-.26.56-6.58,9.32-7.25,10.07-2.4,2.64-6.31,5.88-7.94.99-2.33-7,10.05-16.38,10-23.49-2.65,1.26-6.95-1.78-8.54-1.43-.59.13-.8,1.8-2.01,2.33-1.04.45-2.29-.44-4.4.42-3.75,1.54-6.65,13.7-9.61,16.49-8.68-3.12-2.03-10.25.15-15.57.44-1.08.1-2.67.7-4.14.94-2.3,4.28-3.32,5.71-5.36.99-1.41,1.16-3.38,2.05-4.68,1.49-2.16,6.65-7.32,7.59-9.35,1.1-2.39-.09-8.36,3.14-8.87,3.34-.53,2.05,1.96,2.58,3.36.43,1.13,1.94,1.67,1.84,2.8-.03.37-1.99,4.44-2.4,5.25-1.15,2.25-8.96,13.05-7.88,14.61,2.46,1.57,4.01-1.09,4.29-1.19.17-.06,3.52-.1,3.7-.07,2.23.31,3.98,2.14,6.78,1.15.5-.18,4.51-6.82,5.17-7.98,3.12-5.54,8.49-14.2,10.8-19.65,1-2.36.74-8.32,5.78-6.69Z"/><path d="M309.68,50.5c2.06,1.49,5.12,1.24,4.67,4.72-.66,5.06-5.82.68-6.95,1.77-.17.17.34,1.57-.43,2.11-.96.68-7.88,2.75-8.59,2.02v-2.78c-2.75-1.23-3.39,2.15-4.34,2.57-.88.39-2.41.07-2.56.21-.18.17-.43,4.39-.35,4.96.44,3.25,11.31,8.79,14.3,9.79,1.19.4,3.47.28,3.92.58s.33,1.73.73,2.21c.55.68,1.75.37,2.46,1.16,1.11,1.24,2.7,4.79,2.45,6.5-.29,1.96-6.17,7.57-7.93,8.72-6.61,4.31-20.89,8.64-28.52,10.11-4.29.83-8.9-.12-7.84-5.64.08-.43,2.55-3.25,2.77-3.38,1.89-1.1,6.77.43,8.68.34,4.37-.2,16.35-4.36,20.39-6.67.16-.09,2.54-2.39,2.62-2.55,2.42-4.98-7.84-6.68-10.18-7.83-.87-.43-3.95-3.45-5.24-4.45-2.59-2-5.86-3.29-6.51-7.33-.94-5.89.2-7.79,4.47-11.36,3.91-3.27,7.72-4.44,12.5-5.49,2.18-.48,7.95.15,7.91-2.14.55-.41,1.12,1.49,1.6,1.84Z"/><path d="M180.44,69.7c3.88,2.28,5.59,4.26,6.99,8.56,2.99,9.17.93,19.34-5.76,26.37-4.55,4.78-12.41,7.99-18.82,5.11-1.08-.49-1.24-1.67-2.05-2.3-.49-.38-1.51-.32-2.04-.86-.72-.74-3.37-5.04-3.51-5.86-.1-.59.44-7.77.59-8.76.57-3.64,4.59-11.6,6.85-14.61.74-.99,2.28-1.32,3.38-2.85,1.26-1.77,2.22-7.13,2.83-7.55,2.49-1.75,9.12,1.33,11.54,2.75ZM178.24,82.35c-.88-2.43-.56-5.86-4.17-6.02-1.15-.05-4.61,3.1-5.44,4.2-4.29,5.71-11.28,21.1-.38,23.18,1.74.33,6.12-1.72,7.58-2.84,1.19-.92,5.03-5.37,5.53-6.35.44-.86.96-1.69,1.22-2.62-.05-.56-1.37-1.34-1.72-2.22-.98-2.47-1.96-5.5-2.63-7.33Z"/></svg>