<?xml version="1.0" encoding="UTF-8"?><svg id="Layer_1" xmlns="http://www.w3.org/2000/svg" viewBox="0 0 150 123"><path d="M127.89,32.11l.22,5.42-23.62,17.45-5.38,5.72c-.97,3.79,13.44,15.86,6.9,19.8-7.56,4.56-10.5-10.32-17.33-11.34-1.99.29-17.39,16.01-20.48,18.77-2.1,1.88-14.62,10.61-14.99,12.66-.18.98.9,2.43.63,3.7-.54,2.5-7.1,4.63-9.38,4.56-14.02-.46,10.38-19.48,11.06-20.93.73-1.55-.27-3.39.39-5.43,1.2-3.7,3.74-6.52,4.82-9.27,1.71-4.34,2.32-9.73,5.25-13.74l-8.56-2.5c-7.01,1.02-23.75,4.34-18.42-7.51,6.64-3.02,14.46-.64,21.42-1.57,3.81-.51,7.39-3.08,11.41-3.09,1.62-4.32,7.56-26.76,10.84-27.73,8.49-2.51,4.91,21.16,11.26,22.46,4.76-.89,31.57-9.57,33.97-7.44ZM104.99,45.01l-10.05,2.5-.66.93.72,4.56,2.99-1.49,6.99-6.49ZM85.99,49.99c-.33-.33-7.81,1.22-7.99,2.99l8.99,3.01-1-6ZM65.01,80c4.67-4.16,10.12-8.59,14.51-12.97.73-.73,2.7-2.08,1.99-3.03l-8.55-2.59-7.95,18.59Z"/></svg>