<?xml version="1.0" encoding="UTF-8"?><svg id="Layer_1" xmlns="http://www.w3.org/2000/svg" viewBox="0 0 121.62 131.58"><path d="M64.72,71.87c3.85,3.36,7.73,5.1,11.83,6.41,6.24,2.01,12.51,3.95,18.76,5.94,2.49,.79,2.84,1.84,1.71,5.35-1.14-.09-2.47,.09-3.56-.34-9.53-3.68-19.01-7.48-28.52-11.22-.21-.08-.48-.01-.81-.01,0,4.12-.3,8.26,.07,12.35,.48,5.24,1.5,10.44,2.28,15.66,.45,3.02,.78,6.03-.5,8.95-3.37,.82-4.63,.22-4.59-2.72,.08-6.74-2.31-12.9-4.09-19.21-.71-2.53-1.63-4.99-2.62-7.98-2.53,2.76-4.76,5.24-7.04,7.66-5.56,5.91-10.34,12.43-14.85,19.15-.7,1.05-1.49,2.05-2.25,3.06-.97,1.28-2.12,1.14-3.34,.41-1.19-.72-1.46-1.8-.86-2.93,1.07-2,2.2-4,3.49-5.86,3.6-5.19,7.17-10.42,10.99-15.44,2.9-3.82,6.13-7.4,9.29-11.01,1.72-1.97,3.06-4.01,2.65-7.14-1,0-1.97-.06-2.94,0-5.55,.37-11.1,1.04-16.65,1.08-3.75,.03-7.53-.68-11.25-1.35-1.39-.25-3.08-1.06-2.83-3.01,.23-1.81,1.77-2.36,3.35-2.53,3.9-.42,7.8-.76,11.7-1.16,2.6-.27,5.19-.61,8.4-.99-9.34-4.57-17.02-10.49-24.49-16.71-1.14-.95-2.61-1.9-1.67-3.73,.65-1.26,2.97-1.43,4.76-.39,3.6,2.11,7,4.66,10.77,6.37,5.51,2.49,11.28,4.43,16.95,6.56,1.75,.66,3.56,1.17,5.81,1.9,1.02-5.12,2.51-9.92,2.07-15-.56-6.43-1.27-12.84-1.84-19.27-.21-2.39-.35-4.81-.3-7.21,.06-2.91,.96-3.82,4.32-4.58,3.7,12.99,2.38,26.22,2.23,39.58,2.98-.73,5.78-1.67,7.92-4.52,2.42-3.22,5.38-6.05,8.22-8.93,2-2.03,3.83-2.37,4.96-1.23,1.18,1.18,.73,3.68-1.06,5.41-.91,.87-1.96,1.59-2.95,2.38-4.04,3.19-7.2,7.02-9,11.93-.98,2.69-2.2,5.28-3.61,8.64,3.37-.26,6-.26,8.56-.68,8.85-1.48,17.76-2.71,26.34-5.5,.83-.27,1.74-.3,2.62-.41,1.6-.21,2.78,.26,3.02,2.04,.22,1.67-.53,2.58-2.22,2.89-6.72,1.24-13.41,2.61-20.14,3.79-5.47,.95-10.98,1.68-16.47,2.55-.68,.11-1.32,.52-2.62,1.05Zm-10.96-7.9c-2.65-2.04-10.35-4.79-13.37-4.77,6.43,3.71,8.75,4.54,13.37,4.77Zm7.92-2.07c1.89-1.62,2.77-3.45,2.86-5.91q-4.02,3.26-2.86,5.91Zm-2.42,22.73c.3-.02,.61-.05,.91-.07-.12-1.29-.24-2.58-.36-3.88-.27,.02-.54,.04-.8,.06l.25,3.88Z"/></svg>