<?xml version="1.0" encoding="UTF-8"?><svg id="Layer_1" xmlns="http://www.w3.org/2000/svg" viewBox="0 0 106 120"><path d="M50.89,21.12l5.13,12.88c1.5,1.07,21.66-18.11,20.5-5.89-.6,6.3-8.05,19.2-7.52,24.38.43,4.2,10.16,7.62,11,12.49l-5.31,2.9-10.7-5.41-15.72,34.3c1.93,5.57-7.13,13.43-8.29,6.7-1.32-7.67,18.73-41.61,17.03-43.46l-12-2c0,6.11.49,14.59-1.06,20.43-.85,3.21-3.73,5.14-5.42,1.54-2.01-4.3,2.04-16.4.48-21.98-1.92-1.98-20.23,16.44-23.03,4.49,0-2.17,8.39-8.51,10.48-9.54,3.96-1.96,11.27-1.05,13.64-4.37s1.83-20.6,4.45-25.55c1.19-2.26,4.13-2.39,6.36-1.91ZM67.99,34.01c-4.63,3.02-11.41,6.5-5.49,11.98,1.06,0,5.62-9.96,5.49-11.98ZM49.99,41l-.49-3.99c-1.54,1.08-1.74,2.15-1.5,3.99h1.99ZM53.98,46.01l-1.98.61-4,4.38,9.99,2.01-4.01-6.99Z"/></svg>