<?xml version="1.0" encoding="UTF-8"?><svg id="Layer_1" xmlns="http://www.w3.org/2000/svg" viewBox="0 0 557.5 122"><path d="M161.81,77.4l-8.3.3c-3.57-2.86,2.82-8.97-1.57-7.72-4.77,4.89-18.96,5.31-20.61,11.94-1.41,5.69-.22,23.51-8.86,23.08-10.9-.54,2.05-19.84,2.78-23.98.41-2.35-1.88-4-1.51-6.17.56-3.23,8.8-7.55,9.75-12.38.38-1.95-3.53-4.74-1.93-7.23,9.03-4.66,21.5-5.11,29.37,1.46,4.54,2.18-10.05,13.71-3.5,12.19,8.53-1.98,9.59-9.31,11.06-10.24,1.04-.66,16.16,4.37,13.16-6.39l-12.15-3.23c-4.52-16.24,27.46-4.35,21.31,7.62-6.01,11.71-23.9,10.15-22.33,24.47.29,2.68,2.64,4.25,3.05,6.29.89,4.45-.2,11.3-6.1,10.81-7.52-.63-3.16-15.81-3.63-20.79ZM138.9,69.24l12.8-8.23c.23-2.8-12.02-1.29-13.71-.79-4.28,1.28,2.23,2.93,2.43,4.36l-1.52,4.65Z"/><path d="M254.46,68.77c5.64.73,33.72-5.81,35.83-2.07,1.2,4.25-2.29,3.46-2.95,4.93-.57,1.27.07,4.1-.28,4.47-1.02,1.04-8.07-1.87-10.21-1.95-3.74-.16-29.16,2.96-31.22,4.43-2.44,1.73-.74,9.86-7.77,7.04-4.48-1.8-4.55-27.99-1.6-32.08,1.93-2.68,3.71-2.2,6.78-1.92.55-5.5-5.63-7.54-3.36-13.94,7.2-.68,21.93,9.07,24.28,15.52,1.91,5.27-11.41,13.61-9.49,15.56ZM254.95,52.7c-.52-.65-7.2-5.21-7.57-4.95l-.92,16.45c1.09,1.44,12.59-6.4,8.49-11.51Z"/><path d="M512.35,37.27c-.85-.53-1.3-4.35-7.06-2.71,2.17,5.5,10.94,6.28,15.01,9.36,19.86,15.05-33.22,29.83-42.81,23.35l1.48-6.06c6.16-.11,32.88-2.02,34.76-7.84,2.4-7.41-20.94-9.02-19.52-18.68.97-6.6,16.18-9.56,21.53-7.56,7.57,2.81,3.17,14.26-3.4,10.14Z"/><path d="M96.15,46.2c-1.22,1.57-9.84-.11-13.08.56-6.75,1.39-14.46,7.56-20.59,10.74-1.44,3.9,6.68,7.13,8.7,9.78,16.06,21.04-12.66,34.09-30.11,34.75-3.73.14-6.36-.11-5.58-4.8,1.11-6.71,9.12-2.85,12.91-3.01,7.48-.32,9.44-2.95,14.35-6.75,2.27-1.76,4.78.28,6.2-6.96,2.55-12.96-23.01-14.18-13.21-26.3.38-.47,8.77-6.19,9.87-6.77,5.25-2.78,24.33-10.94,28.92-6.92,1.35,1.18,2.55,4.49,1.62,5.69Z"/><path d="M369.46,28.4c1.86,3.08-6.8,10.03-9.83,10.28-2.33.19-7.97-3.92-12.97-4.15-11.36-.52-33.31,2.7-45.47,4.2-4.46.55-12.04,3.68-15.63,2.95-4.09-.84-4.54-6.12-1.73-7.79.59-.35,11.34-1.93,13.59-2.28,18.05-2.8,48.06-5.66,65.98-4.95,2.16.09,4,1.35,6.06,1.75Z"/><path d="M483.07,32.29c7.26,16.33-16.63,31.68-30.71,29.53-15.41-2.34-20.5-23.02-3.61-24.9-4.45,14.07,3.29,21.87,16.95,15.29,2.15-1.04,8.58-5.17,9.44-6.99,2.27-4.76-7.79-20.51,7.92-12.94Z"/><path d="M198.38,69.44c-7.53-8.95,7.74-22.25,16.84-22.09,3.23.06,8.06,8.22,8.21,10.78.59,10.62-17.94,19.75-25.05,11.31ZM205.24,63.29c10.17,2.53,11.59-7.4,1.05-4.16l-1.05,4.16Z"/><path d="M104.62,84.81c-11.95,8.48-16.73-11.24-11.61-19.52,1.9-2.6,5.91-.65,6.76,1.71.41,1.12-3.48,12.94.78,11.11,7.5-6.36,9.9-18.69,16.78-24.89,4.18-3.77,6.78-.12,5.46,4.52-6.17,6.1-11.49,22.32-18.18,27.06Z"/><path d="M320.03,66.09c-.29-.56-2.08-.7-2.11-1.57-.06-1.65,1.44-3.46,1.45-5.2.01-2.58-.96-20.2,6.04-18.24,5.65,1.59,1.41,9.73,1.3,13.09-.16,5.05,4.69,10.65.71,15.33-4.63,5.43-5.83-.44-7.38-3.41Z"/></svg>